<?xml version="1.0" encoding="iso-8859-1"?>
<!-- Generator: Adobe Illustrator 15.1.0, SVG Export Plug-In . SVG Version: 6.00 Build 0)  -->
<!DOCTYPE svg PUBLIC "-//W3C//DTD SVG 1.1//EN" "http://www.w3.org/Graphics/SVG/1.1/DTD/svg11.dtd">
<svg version="1.1" xmlns="http://www.w3.org/2000/svg" xmlns:xlink="http://www.w3.org/1999/xlink" x="0px" y="0px"
	 width="182.65px" height="72.5px" viewBox="0 0 182.65 72.5" style="enable-background:new 0 0 182.65 72.5;" xml:space="preserve"
	>
<symbol  id="flash0.ai_Assets_x2F_Isolation_Mode_x2F__x3C_Compound_Path_x3E_" viewBox="-0.038 -29.8 66.998 29.8">
	<g id="Layer_1_3_">
		<path style="fill-rule:evenodd;clip-rule:evenodd;" d="M46.7-22.85c2.5,0.833,4.7,1.633,6.6,2.4c-4.667,1.667-9.167,3.333-13.5,5
			c-0.3,0.1-1.316,0.833-3.05,2.2c-1.867,1.467-2.85,2.233-2.95,2.3c-1.3,0.2-2.75,0.267-4.35,0.2c-3-0.133-5.05-0.2-6.15-0.2
			c-2.333,0-5.15,0.284-8.45,0.85C12.083-9.6,9.733-9.05,7.8-8.45c0.2-1.533,0.833-3.1,1.9-4.7c1.267-1.9,2.966-3.5,5.1-4.8
			c6.5-3.966,10.083-6.117,10.75-6.45c3.1-1.467,6.184-1.983,9.25-1.55C37.733-25.55,41.7-24.517,46.7-22.85z M51.8-12.15
			c2.5,2.933,2.5,4.5,0,4.7c-1.466,0.133-2.667-1.333-3.6-4.4c-0.434-1.533-0.733-3.066-0.9-4.6L51.8-12.15z M61.5-20.25
			c0.4-1.367,1.333-2.383,2.8-3.05c2.133-1,2.983-2,2.55-3c-0.5-1.067-2.217-1.6-5.15-1.6c-1.967,0-4.2,0.417-6.7,1.25
			c-2.133,0.7-3.9,0.917-5.3,0.65c-3.867-0.9-7.184-1.633-9.95-2.2c-5.2-1.066-9.317-1.6-12.35-1.6c-2.8,0-5.1,0.633-6.9,1.9
			c-1.767,1.267-3.017,1.9-3.75,1.9c-0.367,0-2.517-0.417-6.45-1.25c-3-0.667-5.167-0.633-6.5,0.1c-2.6,1.4-1.417,2.8,3.55,4.2
			c2.933,0.833,4.6,1.333,5,1.5c1.367,0.534,1.6,1.05,0.7,1.55c-2.433,1.167-4.15,2-5.15,2.5c-1.667,0.867-3.316,2.05-4.95,3.55
			c-3.534,3.233-3.934,6.833-1.2,10.8l2.2-0.35L3.4-1l0.55,0.5L38.3-1.45l0.4-1.35L45.65,0c-1.3-1.133-2.467-2.4-3.5-3.8
			c-2.066-2.767-2.483-4.767-1.25-6c0.8-0.8,1.733-1.317,2.8-1.55c0.833-0.167,1.65-0.15,2.45,0.05c1.2,0.267,1.65,1.283,1.35,3.05
			c-0.3,1.667,0.467,2.583,2.3,2.75c2.967,0.3,5.25,0.183,6.85-0.35c1.934-0.6,2.75-1.75,2.45-3.45
			c-0.133-0.767-0.983-1.717-2.55-2.85c-1.533-1.1-2.933-1.817-4.2-2.15c0.167-0.067,1.316-0.4,3.45-1
			c2.034-0.534,3.133-0.867,3.3-1C60.233-17.233,61.033-18.55,61.5-20.25z"/>
	</g>
</symbol>
<symbol  id="flash0.ai_Assets_x2F_Isolation_Mode_x2F__x3C_Path_x3E_" viewBox="0.011 -22.63 104.789 22.63">
	<g id="Layer_1_10_">
		<path style="fill-rule:evenodd;clip-rule:evenodd;" d="M93.6-10.2c1.066,0.5,1.883,1.1,2.45,1.8c-0.7,0.533-2.783,1.433-6.25,2.7
			c-3.267,1.2-5.483,1.917-6.65,2.15c-0.6,0.133-1.45,0.066-2.55-0.2C79.467-3.983,78.683-4.067,78.25-4
			c-0.367,0.067-0.933,0.4-1.7,1c-0.767,0.6-1.35,0.95-1.75,1.05C72.567-1.383,68.95-1.1,63.95-1.1c-4.9,0.033-8.45,0.367-10.65,1
			L53.6,0c8-0.167,16.183-0.783,24.55-1.85c8-1.033,14.383-2.233,19.15-3.6c0.6-0.3,1.833-1.083,3.7-2.35
			c1.567-1.133,2.833-1.85,3.8-2.15c-0.633-3.133-4-5.483-10.1-7.05c-2.5-0.633-6.967-1.317-13.4-2.05c-2.9-0.2-5.1-0.35-6.6-0.45
			c-2.633-0.2-4.784-0.517-6.45-0.95c-2.1-0.566-4.033-0.917-5.8-1.05c-0.633-0.033-2.534-0.05-5.7-0.05
			c-1.033,0-2.883-0.2-5.55-0.6c-2.467-0.4-4.434-0.55-5.9-0.45c-1.633,0.067-3.667,0.367-6.1,0.9c-2.8,0.633-4.784,1.017-5.95,1.15
			c-6.167,0.2-10.717,0.4-13.65,0.6c-5.167,0.4-9.1,1.7-11.8,3.9c-1.033,0.833-2.333,1.583-3.9,2.25
			c-1.633,0.733-2.833,1.367-3.6,1.9C0-11.7-0.067-10.867,0.1-9.4c0.2,1.6,0.267,2.45,0.2,2.55C4.733-5.283,8.467-4.1,11.5-3.3
			c5.4,1.433,12.717,2.4,21.95,2.9l1.75-0.4c-5.7,0.2-9.8-0.117-12.3-0.95c0.4-1.033-0.433-1.883-2.5-2.55
			c-1-0.3-3.4-0.784-7.2-1.45c-7.167-1.267-10.467-3.067-9.9-5.4c1.267-0.533,3.667-0.967,7.2-1.3c3.933-0.4,6.367-0.733,7.3-1
			c1.034-0.267,2.434-0.933,4.2-2c1.733-1.066,3.167-1.733,4.3-2c1.467-0.367,3.3-0.466,5.5-0.3c3,0.233,4.833,0.333,5.5,0.3
			c1.3-0.066,3.2-0.316,5.7-0.75c2.5-0.433,4.433-0.683,5.8-0.75c3.8-0.2,7.65,0,11.55,0.6c1.4,0.2,5.133,0.934,11.2,2.2
			c0.8,0.167,3.05,0.25,6.75,0.25c3.133-0.033,5.3,0.3,6.5,1c0.333,0.233,2.417,1.4,6.25,3.5C91.217-11.3,92.067-10.9,93.6-10.2z"/>
	</g>
</symbol>
<symbol  id="flash0.ai_Assets_x2F_Isolation_Mode_x2F__x3C_Path_x3E__x5F_0" viewBox="0 -12.038 85.744 12.031">
	<g id="Layer_1_11_">
		<path style="fill-rule:evenodd;clip-rule:evenodd;fill:#FFFFFF;" d="M70.4-3.7c1.367-0.1,4.55-0.267,9.55-0.5
			c4.2-0.367,6.117-1.083,5.75-2.15c-0.333-0.933-5.483-1.733-15.45-2.4c-13.3-0.9-21.683-1.617-25.15-2.15
			c-9.2-1.5-17-1.517-23.4-0.05c-1.667,0.4-5.3,1.067-10.9,2C6.267-8.183,2.667-7.4,0-6.6c0.4,2.267,3.667,3.783,9.8,4.55
			c3.267,0.4,7.483,0.65,12.65,0.75c4.966,0.267,9.867,0.466,14.7,0.6c2.367,0.067,6.567,0.284,12.6,0.65
			C55.15,0.117,59.133-0.2,61.7-1l-3-0.2c0.129-0.027,0.262-0.061,0.4-0.1c1.667-0.434,2.533-0.65,2.6-0.65
			c0.8-0.1,2.25-0.4,4.35-0.9C68.05-3.317,69.5-3.6,70.4-3.7z"/>
	</g>
</symbol>
<symbol  id="flash0.ai_Assets_x2F_Isolation_Mode_x2F__x3C_Path_x3E__x5F_1" viewBox="0 -5.05 62.986 5.063">
	<g id="Layer_1_8_">
		<path style="fill-rule:evenodd;clip-rule:evenodd;" d="M45.35-0.45c1.967,0,4.617-0.25,7.95-0.75c2.434-0.367,4.284-0.367,5.55,0
			l3.75,1.05c0.6-0.833,0.5-1.533-0.3-2.1c-0.9-0.6-2.417-0.9-4.55-0.9c-1.967,0-4.2,0.417-6.7,1.25c-2.133,0.7-3.9,0.917-5.3,0.65
			c-3.867-0.9-7.183-1.633-9.95-2.2c-5.2-1.066-9.316-1.6-12.35-1.6c-2.8,0-5.1,0.633-6.9,1.9c-1.767,1.267-3.017,1.9-3.75,1.9
			c-0.4,0-2.5-0.417-6.3-1.25C3.5-3.133,1.333-3.117,0-2.45c2.067,0.067,3.933,0.4,5.6,1c1.733,0.633,3.55,1.067,5.45,1.3
			c1.9,0.233,3.417,0.217,4.55-0.05c0.767-0.167,1.483-0.85,2.15-2.05C18.917-3.283,21.2-3.6,24.6-3.2
			c1.733,0.2,5.417,0.784,11.05,1.75C39.517-0.783,42.75-0.45,45.35-0.45z"/>
	</g>
</symbol>
<symbol  id="flash0.ai_Assets_x2F_Isolation_Mode_x2F__x3C_Path_x3E__x5F_13" viewBox="0 -9.667 73.967 9.717">
	<g id="Layer_1_2_">
		<path style="fill-rule:evenodd;clip-rule:evenodd;" d="M63.95-0.15c2.333-0.4,4.55-1.25,6.65-2.55c2.4-1.466,3.517-2.95,3.35-4.45
			c-0.133-1.434-2.817-1.934-8.05-1.5c-3.267,0.267-6.7,0.767-10.3,1.5C54.3-6.883,51.767-7.067,48-7.7
			c-6.333-1.033-10.133-1.633-11.4-1.8c-3.333-0.4-6.917-0.083-10.75,0.95c-3.367,1.133-5.45,1.7-6.25,1.7
			c-2.133-0.233-4.067-0.4-5.8-0.5c-3.3-0.2-6.25-0.033-8.85,0.5C1.683-6.15,0.033-5.367,0-4.5c-0.033,0.9,1.733,1.683,5.3,2.35
			C8.8-1.517,18.983-0.933,35.85-0.4C52.45,0.1,61.817,0.183,63.95-0.15z"/>
	</g>
</symbol>
<symbol  id="flash0.ai_Assets_x2F_Isolation_Mode_x2F__x3C_Path_x3E__x5F_2" viewBox="0 -15.5 64.56 15.5">
	<g id="Layer_1_7_">
		<path style="fill-rule:evenodd;clip-rule:evenodd;" d="M61.9-9c2.133-1,2.983-2,2.55-3c-0.5-1.067-2.217-1.6-5.15-1.6
			c-1.966,0-4.2,0.417-6.7,1.25c-2.133,0.7-3.9,0.917-5.3,0.65l-1.8-0.35l-0.1-0.05L38-13.75l-0.15-0.05l-3-0.55l-0.3-0.1L32.4-14.8
			c-3.033-0.467-5.5-0.7-7.4-0.7c-2.8,0-5.1,0.633-6.9,1.9c-1.767,1.267-3.017,1.9-3.75,1.9c-0.367,0-2.517-0.417-6.45-1.25
			c-3-0.667-5.167-0.633-6.5,0.1L0-11.65c2.267,0.667,5.233,1.333,8.9,2c1.833,0.333,3.767,0.833,5.8,1.5
			c1.466,0.267,3.033-0.233,4.7-1.5c1.633-1.267,4.267-2.5,7.9-3.7l0.6,0.2c1.867,0.5,5.133,1.083,9.8,1.75
			c4.867,0.667,8.267,1.25,10.2,1.75c3.367,0.833,5.1,1.283,5.2,1.35c0.433,0.333,0.533,1.55,0.3,3.65
			c-0.2,1.867-1.35,2.85-3.45,2.95L46.9-2.15L49.95,0c0.167-0.067,1.316-0.4,3.45-1c2.033-0.533,3.133-0.867,3.3-1
			c1.133-0.933,1.933-2.25,2.4-3.95C59.5-7.317,60.433-8.333,61.9-9z"/>
	</g>
</symbol>
<symbol  id="flash0.ai_Assets_x2F_Isolation_Mode_x2F__x3C_Path_x3E__x5F_3" viewBox="0 -14.5 45.687 14.5">
	<g id="Layer_1_6_">
		<path style="fill-rule:evenodd;clip-rule:evenodd;" d="M42.9-12.85c0.9,0.033,1.817,0.2,2.75,0.5c0.1-0.367,0-0.733-0.3-1.1
			c-0.6-0.7-1.95-1.05-4.05-1.05c-2.5,0-4.667,1.5-6.5,4.5h-12C16.967-10,9.367-8.783,0-6.35C0.9-4.117,2.65-2,5.25,0L37.8-2.5
			L38-6.2l3.85,1.65c-2.267-2.9-2.75-5-1.45-6.3C40.233-12.25,41.067-12.917,42.9-12.85z"/>
	</g>
</symbol>
<symbol  id="flash0.ai_Assets_x2F_Isolation_Mode_x2F__x3C_Path_x3E__x5F_4" viewBox="0 -8.5 6.797 8.5">
	<g id="Layer_1_5_">
		<path style="fill-rule:evenodd;clip-rule:evenodd;" d="M6.75-3.5C6.617-4.267,5.767-5.217,4.2-6.35C2.667-7.45,1.267-8.167,0-8.5
			c1.633,1.233,2.95,2.683,3.95,4.35C4.617-2.983,4.683-1.6,4.15,0C6.15-0.6,7.017-1.767,6.75-3.5z"/>
	</g>
</symbol>
<symbol  id="flash0.ai_Assets_x2F_Isolation_Mode_x2F__x3C_Path_x3E__x5F_5" viewBox="-0.033 -11.403 26.683 11.403">
	<g id="Layer_1_4_">
		<path style="fill-rule:evenodd;clip-rule:evenodd;fill:#FFFFFF;" d="M0.5-2.05C-0.033-1.283-0.167-0.767,0.1-0.5
			C2.667-0.833,4.95-1,6.95-1s4.133,0.333,6.4,1l0.85-1.95c0.867-1.4,2.017-2.417,3.45-3.05c2.267-1,5.267-2.167,9-3.5
			c-1.433-1.1-3.267-1.917-5.5-2.45c-4.5-1.066-8.8-0.25-12.9,2.45S1.567-3.65,0.5-2.05z"/>
	</g>
</symbol>
<symbol  id="flash0.ai_Assets_x2F_Isolation_Mode_x2F__x3C_Path_x3E__x5F_5_x5F_0" viewBox="-0.006 -39.85 173.358 39.85">
	<g id="Layer_1_9_">
		<path style="fill-rule:evenodd;clip-rule:evenodd;" d="M166.9-10.25c6.233-0.1,7.95-2.383,5.15-6.85
			c-1.8-2.867-4.483-4.783-8.05-5.75c-3.167-0.867-7.9-1.167-14.2-0.9c-2.6,0.1-4.017-0.2-4.25-0.9c-0.033-0.1,0.217-0.95,0.75-2.55
			c0.967-2.8-2.45-4.633-10.25-5.5c-1.767-0.2-5.633,0.267-11.6,1.4c-6.367,1.2-10,1.8-10.9,1.8c-0.933,0-2.2-0.533-3.8-1.6
			c-2.1-1.5-3.833-2.683-5.2-3.55c-5.5-3.467-11.5-5.2-18-5.2c-10.333,0-18.2,1.567-23.6,4.7c-2.267,1.533-3.85,2.566-4.75,3.1
			c-1.534,0.9-3.083,1.3-4.65,1.2c-8.867-0.633-13.816-0.967-14.85-1c-4.233-0.066-9.45,0.417-15.65,1.45
			c-5.833,0.967-7.25,3.167-4.25,6.6c1.5,1.733,3.583,3.367,6.25,4.9c-3.133-0.867-6.45-1.4-9.95-1.6c-7-0.467-11.434,0.9-13.3,4.1
			c-1.7,2.9-2.2,5.05-1.5,6.45c0.633,1.233,2.284,2.034,4.95,2.4c1.667,0.267,4.75,0.4,9.25,0.4c4.967,0.033,8.733,0.167,11.3,0.4
			c3.633,0.3,7.8,1.2,12.5,2.7c-2.6-1.8-5.083-2.983-7.45-3.55c-2.3-0.566-5.45-0.816-9.45-0.75c-4.833,0.067-8.05,0.017-9.65-0.15
			c-1.967-0.233-3.3-0.467-4-0.7C5.917-9.8,5.067-10.733,5.2-12c0.167-1.533,3.183-2.367,9.05-2.5
			c2.267-0.067,5.65,0.183,10.15,0.75c4.367,0.567,7.783,0.783,10.25,0.65c0.533-0.933,0.167-2.783-1.1-5.55
			c-1.367-3.067-1.95-5.333-1.75-6.8c3.034-0.133,6.833,0.517,11.4,1.95c4.933,1.567,8.617,2.4,11.05,2.5
			c3.4,0.133,7.15-0.85,11.25-2.95c1.033-0.533,4.417-2.6,10.15-6.2c3.667-2.3,7.25-3.05,10.75-2.25
			c2.4,0.566,5.883,2.333,10.45,5.3c4.5,2.9,7.783,4.617,9.85,5.15c2.867,0.733,6.55,0.417,11.05-0.95
			c1.767-0.533,4.733-1.417,8.9-2.65c3.733-0.967,6.767-1.284,9.1-0.95c3.233,0.433,4.7,1.817,4.4,4.15
			c-0.2,1.633-1.35,3.917-3.45,6.85c0.6,0.667,1.517,1.15,2.75,1.45c0.7,0.167,1.767,0.383,3.2,0.65c-0.433,1.5-1.066,2.6-1.9,3.3
			c-0.567,0.467-1.9,1.167-4,2.1c-0.867,0.367-2.75,1.7-5.65,4c-3.067,2.4-4.85,3.733-5.35,4c2.133-0.433,3.783-0.917,4.95-1.45
			c0.733-0.367,1.917-1.05,3.55-2.05c4.967-2.8,8.083-4.483,9.35-5.05c2.533-1.167,5.267-1.95,8.2-2.35
			C153.967-11.2,159-10.983,166.9-10.25z"/>
	</g>
</symbol>
<symbol  id="price_x5F_tag_x5F_pt_x5F_mc">
	<g id="Layer_1_12_">
	</g>
</symbol>
<g id="Layer_2">
	<g>
		
			<radialGradient id="SVGID_1_" cx="91.3252" cy="81.6748" r="90.2401" gradientTransform="matrix(1 0 0 -0.1796 0 96.3416)" gradientUnits="userSpaceOnUse">
			<stop  offset="0" style="stop-color:#000000;stop-opacity:0.4"/>
			<stop  offset="1" style="stop-color:#000000;stop-opacity:0"/>
		</radialGradient>
		<path style="fill-rule:evenodd;clip-rule:evenodd;fill:url(#SVGID_1_);" d="M155.9,70.5c17.833,3.066,26.75,6.783,26.75,11.15
			c0,4.366-8.917,8.1-26.75,11.199C138.066,95.95,116.55,97.5,91.35,97.5c-25.233,0-46.766-1.55-64.6-4.65
			C8.917,89.75,0,86.017,0,81.65c0-4.367,8.917-8.084,26.75-11.15c17.867-3.1,39.4-4.65,64.6-4.65
			C116.55,65.85,138.066,67.4,155.9,70.5z"/>
		
			<use xlink:href="#flash0.ai_Assets_x2F_Isolation_Mode_x2F__x3C_Path_x3E__x5F_13"  width="73.967" height="9.717" x="0" y="-9.667" transform="matrix(1 0 0 -1 60.0498 80)" style="overflow:visible;opacity:0.1992;enable-background:new    ;"/>
		<path style="fill-rule:evenodd;clip-rule:evenodd;fill:#926786;" d="M105.2,61.85c-2.066,2.767-2.483,4.767-1.25,6
			c0.8,0.801,1.733,1.317,2.8,1.551c0.833,0.166,1.65,0.149,2.45-0.051c1.2-0.267,1.649-1.283,1.35-3.05
			c-0.3-1.666,0.467-2.583,2.3-2.75c2.967-0.3,5.25-0.184,6.851,0.351c1.934,0.6,2.75,1.75,2.45,3.449
			c-0.134,0.767-0.983,1.717-2.551,2.851c-1.533,1.1-2.933,1.816-4.199,2.149c0.166,0.067,1.316,0.4,3.449,1
			c2.034,0.534,3.134,0.867,3.301,1c1.133,0.934,1.933,2.25,2.399,3.95c0.4,1.367,1.334,2.384,2.8,3.05c2.134,1,2.983,2,2.551,3
			c-0.5,1.067-2.217,1.601-5.15,1.601c-1.967,0-4.2-0.417-6.7-1.25c-2.133-0.7-3.899-0.917-5.3-0.65
			c-3.866,0.9-7.184,1.634-9.95,2.2c-5.2,1.066-9.316,1.6-12.35,1.6c-2.8,0-5.1-0.633-6.9-1.899c-1.767-1.267-3.017-1.9-3.75-1.9
			c-0.367,0-2.517,0.417-6.45,1.25c-3,0.667-5.167,0.634-6.5-0.1c-2.6-1.4-1.417-2.8,3.55-4.2c2.934-0.833,4.6-1.333,5-1.5
			c1.367-0.533,1.6-1.05,0.7-1.55c-2.434-1.167-4.15-2-5.15-2.5c-1.667-0.867-3.317-2.05-4.95-3.55
			c-3.367-3.101-3.883-6.534-1.55-10.301c1.2-1.899,2.716-3.483,4.55-4.75l39.7,1.2C107.4,59.184,106.233,60.45,105.2,61.85z"/>
		<path style="fill-rule:evenodd;clip-rule:evenodd;fill:#766388;" d="M86.35,69c6.667-1.667,11.716-3.8,15.15-6.4
			c1.7-1.3,2.733-2.433,3.1-3.399l0.801,2.35c-2.167,2.767-2.717,4.8-1.65,6.101c-7.267,4.833-14.233,7.783-20.9,8.85
			c-2.167,0.333-4.717,0.667-7.65,1c-2.133-1-3.667-1.75-4.6-2.25c-1.533-0.833-3.067-1.95-4.6-3.35L65.15,71
			C71.05,71.733,78.117,71.066,86.35,69z"/>
		<path style="fill-rule:evenodd;clip-rule:evenodd;fill:#766388;" d="M78.85,64.5c-4.667,1.934-9.9,2.8-15.7,2.6
			c-0.4-2.333,0.45-4.733,2.55-7.199c1.066-1.267,2.167-2.284,3.3-3.051l19.5,0.601C86.433,60.316,83.217,62.667,78.85,64.5z"/>
		<path style="fill-rule:evenodd;clip-rule:evenodd;fill:#766388;" d="M106.6,69.35c0.934,0.2,1.801,0.2,2.601,0
			c-0.3,1.034-1.05,2.317-2.25,3.851c-2.367,3.033-5.733,5.8-10.101,8.3c-2.3,1.333-5.833,3.267-10.6,5.8
			c-1.067-0.333-2.267-1-3.6-2c-1.033-0.833-1.983-1.25-2.85-1.25c-0.367,0-2.517,0.417-6.45,1.25c-3,0.667-5.167,0.634-6.5-0.1
			c-0.767-0.434-1.233-0.834-1.4-1.2c3.267,0,6.966-0.283,11.1-0.85c7.434-1,13.367-2.717,17.8-5.15
			C100.75,74.533,104.833,71.65,106.6,69.35z"/>
		<path style="fill-rule:evenodd;clip-rule:evenodd;fill:#766388;" d="M114.85,73h2.851l1.85,0.5c-1.666,2.9-3.733,5.733-6.2,8.5
			c-0.699,0.8-1.5,1.616-2.399,2.45c-2.467,0.566-4.45,1.017-5.95,1.35c-2.767,0.601-5.15,1.05-7.15,1.351
			c4.667-2.767,8.5-5.65,11.5-8.65L114.85,73z"/>
		<path style="fill-rule:evenodd;clip-rule:evenodd;fill:#766388;" d="M118.2,84.75c1.1-1.366,2.149-2.616,3.149-3.75
			c0.967-1.1,1.934-2.333,2.9-3.7c0.2,0.533,0.45,1.25,0.75,2.15c0.4,0.767,1.184,1.399,2.35,1.899c2.134,1,2.983,2,2.551,3
			c-0.5,1.067-2.217,1.601-5.15,1.601C122.65,85.95,120.467,85.55,118.2,84.75z"/>
		
			<use xlink:href="#flash0.ai_Assets_x2F_Isolation_Mode_x2F__x3C_Compound_Path_x3E_"  width="66.998" height="29.8" x="-0.038" y="-29.8" transform="matrix(1 0 0 -1 63.0498 58.0498)" style="overflow:visible;opacity:0.1484;enable-background:new    ;"/>
		
			<use xlink:href="#flash0.ai_Assets_x2F_Isolation_Mode_x2F__x3C_Path_x3E__x5F_5"  width="26.683" height="11.403" x="-0.033" y="-11.403" transform="matrix(1 0 0 -1 78.2002 70)" style="overflow:visible;opacity:0.1484;enable-background:new    ;"/>
		
			<use xlink:href="#flash0.ai_Assets_x2F_Isolation_Mode_x2F__x3C_Path_x3E__x5F_4"  width="6.797" height="8.5" y="-8.5" transform="matrix(1 0 0 -1 115.4004 63.8496)" style="overflow:visible;opacity:0.25;enable-background:new    ;"/>
		
			<use xlink:href="#flash0.ai_Assets_x2F_Isolation_Mode_x2F__x3C_Path_x3E__x5F_3"  width="45.687" height="14.5" y="-14.5" transform="matrix(1 0 0 -1 63.5498 57)" style="overflow:visible;opacity:0.25;enable-background:new    ;"/>
		
			<use xlink:href="#flash0.ai_Assets_x2F_Isolation_Mode_x2F__x3C_Path_x3E__x5F_2"  width="64.56" height="15.5" y="-15.5" transform="matrix(1 0 0 -1 65.4502 72.3496)" style="overflow:visible;opacity:0.25;enable-background:new    ;"/>
		
			<use xlink:href="#flash0.ai_Assets_x2F_Isolation_Mode_x2F__x3C_Path_x3E__x5F_1"  width="62.986" height="5.063" y="-5.05" transform="matrix(1 0 0 -1 67 82.7998)" style="overflow:visible;opacity:0.25;enable-background:new    ;"/>
		
			<linearGradient id="SVGID_2_" gradientUnits="userSpaceOnUse" x1="57.5977" y1="-94.4111" x2="89.3597" y2="-94.4111" gradientTransform="matrix(0.0275 0.9996 -0.9996 0.0275 1.751520e-004 2.415534e-004)">
			<stop  offset="0.0275" style="stop-color:#000000"/>
			<stop  offset="0.2902" style="stop-color:#1C1823;stop-opacity:0.6196"/>
			<stop  offset="0.5804" style="stop-color:#362E43;stop-opacity:0.2824"/>
			<stop  offset="0.8235" style="stop-color:#453B56;stop-opacity:0.0745"/>
			<stop  offset="0.9922" style="stop-color:#4B405D;stop-opacity:0"/>
		</linearGradient>
		<path style="fill-rule:evenodd;clip-rule:evenodd;fill:url(#SVGID_2_);" d="M105.2,61.85c-2.066,2.767-2.483,4.767-1.25,6
			c0.8,0.801,1.733,1.317,2.8,1.551c0.833,0.166,1.65,0.149,2.45-0.051c1.2-0.267,1.649-1.283,1.35-3.05
			c-0.3-1.666,0.467-2.583,2.3-2.75c2.967-0.3,5.25-0.184,6.851,0.351c1.934,0.6,2.75,1.75,2.45,3.449
			c-0.134,0.767-0.983,1.717-2.551,2.851c-1.533,1.1-2.933,1.816-4.199,2.149c0.166,0.067,1.316,0.4,3.449,1
			c2.034,0.534,3.134,0.867,3.301,1c1.133,0.934,1.933,2.25,2.399,3.95c0.4,1.367,1.334,2.384,2.8,3.05c2.134,1,2.983,2,2.551,3
			c-0.5,1.067-2.217,1.601-5.15,1.601c-1.967,0-4.2-0.417-6.7-1.25c-2.133-0.7-3.899-0.917-5.3-0.65
			c-3.866,0.9-7.184,1.634-9.95,2.2c-5.2,1.066-9.316,1.6-12.35,1.6c-2.8,0-5.1-0.633-6.9-1.899c-1.767-1.267-3.017-1.9-3.75-1.9
			c-0.367,0-2.517,0.417-6.45,1.25c-3,0.667-5.167,0.634-6.5-0.1c-2.6-1.4-1.417-2.8,3.55-4.2c2.934-0.833,4.6-1.333,5-1.5
			c1.367-0.533,1.6-1.05,0.7-1.55c-2.434-1.167-4.15-2-5.15-2.5c-1.667-0.867-3.317-2.05-4.95-3.55
			c-3.367-3.101-3.883-6.534-1.55-10.301c1.2-1.899,2.716-3.483,4.55-4.75l39.7,1.2C107.4,59.184,106.233,60.45,105.2,61.85z"/>
		<g>
			<path style="fill-rule:evenodd;clip-rule:evenodd;fill:#4D486B;" d="M169.1,51.85c-3.166,0.867-7.899,1.167-14.199,0.9
				c-2.601-0.1-4.017,0.2-4.25,0.9c-0.034,0.1,0.216,0.949,0.75,2.55c0.966,2.8-2.45,4.633-10.25,5.5
				c-1.767,0.2-5.634-0.267-11.601-1.4c-6.366-1.2-10-1.8-10.899-1.8c-0.934,0-2.2,0.533-3.801,1.6
				c-2.1,1.5-3.833,2.684-5.199,3.551c-5.5,3.466-11.5,5.199-18,5.199c-10.333,0-18.2-1.566-23.601-4.699
				c-2.267-1.534-3.85-2.567-4.75-3.101c-1.533-0.899-3.083-1.3-4.65-1.2c-8.867,0.634-13.816,0.967-14.85,1
				c-4.233,0.067-9.45-0.416-15.65-1.449c-5.833-0.967-7.25-3.167-4.25-6.601c1.5-1.733,3.583-3.366,6.25-4.899
				c-3.133,0.866-6.45,1.399-9.95,1.6c-7,0.467-11.434-0.9-13.3-4.1c-1.7-2.9-2.2-5.051-1.5-6.45c0.633-1.233,2.283-2.034,4.95-2.4
				c1.667-0.267,4.75-0.4,9.25-0.4c4.967-0.033,8.733-0.167,11.3-0.4c3.2-0.267,6.517-0.9,9.95-1.9c2.033-0.6,5.267-1.6,9.7-3
				c9.567-2.7,21.85-4.283,36.85-4.75c9.2-0.267,18.383,0.283,27.55,1.65c8.2,1.2,15.017,2.8,20.45,4.8
				c3.333,1.233,7.35,2.817,12.05,4.75c3.633,1.367,6.783,2.233,9.45,2.601c2.166,0.3,7.199,0.083,15.1-0.65
				c6.233,0.1,7.95,2.384,5.15,6.85C175.35,48.967,172.667,50.884,169.1,51.85z"/>
			<path style="fill-rule:evenodd;clip-rule:evenodd;fill:#3E3B57;" d="M169.1,51.85c-3.166,0.867-7.899,1.167-14.199,0.9
				c-2.2-0.033-3.551,0.15-4.051,0.55c-1.533-0.366-2.566-0.833-3.1-1.399c-0.566-0.9-1.1-1.767-1.6-2.601
				c-1.5-2.467-1.051-3.783,1.35-3.95c1.3-0.1,3.3,0.101,6,0.601c1.866,0.166,4.05,0.416,6.55,0.75c2.033,0.2,4.2,0.25,6.5,0.149
				c3.7-0.133,5.884-0.267,6.55-0.399c2.534-0.434,4.217-1.417,5.051-2.95h0.05c-0.101,0.833-0.45,1.7-1.05,2.6
				C175.35,48.967,172.667,50.884,169.1,51.85z"/>
			<path style="fill-rule:evenodd;clip-rule:evenodd;fill:#3E3B57;" d="M129.55,60.3c-6.366-1.2-10-1.8-10.899-1.8
				c-0.934,0-2.2,0.533-3.801,1.6c-2.1,1.5-3.833,2.684-5.199,3.551c-5.5,3.466-11.5,5.199-18,5.199
				c-10.333,0-18.2-1.566-23.601-4.699c-2.267-1.534-3.85-2.567-4.75-3.101c-1.533-0.899-3.083-1.3-4.65-1.2
				c-8.867,0.634-13.816,0.967-14.85,1c-4.233,0.067-9.45-0.416-15.65-1.449c-2.566-0.434-4.267-1.117-5.1-2.051
				c0.934,0.067,2.284,0.25,4.05,0.551c2.1,0.033,4.45-0.084,7.05-0.351c2-0.166,6.117-0.767,12.35-1.8
				c5.133-0.833,9.25-1.25,12.35-1.25c3.066,0,5.833,0.583,8.3,1.75c1.5,0.7,3.95,2.033,7.35,4c3.633,1.9,8.967,2.85,16,2.85
				c3.134,0,5.65-0.216,7.55-0.649c2.634-0.566,4.816-1.65,6.55-3.25c1.434-1.3,3.134-2.917,5.101-4.851
				c1.767-1.233,4.133-1.8,7.1-1.699c5.867,0.267,11.233,1.683,16.101,4.25c1.399,0.733,3.083,1.483,5.05,2.25
				c2.767,1.1,5.05,1.783,6.85,2.05l-3.649,0.5C139.384,61.9,135.517,61.434,129.55,60.3z"/>
			<path style="fill-rule:evenodd;clip-rule:evenodd;fill:#3E3B57;" d="M29.35,44.75c1.4,0.634,1.983,1.35,1.75,2.15
				c-0.267,0.767-1.184,1.267-2.75,1.5L30,49c-0.733,0-1.683,0.05-2.85,0.15C28.183,48.417,29.133,47.8,30,47.3
				c-3.133,0.867-6.45,1.4-9.95,1.601c-7,0.433-11.433-0.934-13.3-4.101c-0.533-0.833-0.933-1.633-1.2-2.399
				c2.133,0.966,3.5,1.533,4.1,1.699c3.1,0.834,6,1.25,8.7,1.25c0.267,0,2.1-0.283,5.5-0.85C26.25,44.1,28.083,44.184,29.35,44.75z"
				/>
			<path style="fill-rule:evenodd;clip-rule:evenodd;fill:#5B567E;" d="M127,31.65l-0.5,0.2h0.5V31.65
				c1.134-0.367,2.583-0.35,4.35,0.05l2.851,0.95c0.533,0.3,2.267,0.934,5.2,1.9c2.666,1,3.983,1.817,3.949,2.45
				c-2.899,0.566-4.066,2.316-3.5,5.25c0.167,0.8,0.45,2.05,0.851,3.75c0.233,1.467,0.116,2.634-0.351,3.5
				c-0.666,1.2-3.366,1.333-8.1,0.4c-5.066-1.2-8.033-1.834-8.9-1.9c-3.399-0.434-6.05-0.75-7.949-0.95
				c-3.5-0.333-6.15-0.116-7.95,0.65c-1.134,0.5-3.816,2.467-8.05,5.899c-3.534,2.9-6.384,4.367-8.55,4.4
				c-2.167,0.066-5.1-0.85-8.8-2.75c-3.9-2.2-6.633-3.616-8.2-4.25c-2.367-0.934-7.283-1.35-14.75-1.25
				c-5.434,0.066-10.35,0.316-14.75,0.75c-1.567,0.167-2.333-0.066-2.3-0.7c0.034-0.366,0.517-1.184,1.45-2.45
				c2.2-3.033,2.483-5.149,0.85-6.35c-1.167-0.833-1.684-1.017-1.55-0.55c0.2,0.8-0.4,0.967-1.8,0.5
				c-4.167-1.367-5.55-3.134-4.15-5.3C40.517,34.783,46.2,33,53.9,30.3c8.733-2.367,19.9-3.767,33.5-4.2
				c7.133-0.2,14.317,0.117,21.55,0.95c6.533,0.767,12.566,1.9,18.1,3.4C127.083,30.683,127.066,31.083,127,31.65z"/>
			<path style="fill-rule:evenodd;clip-rule:evenodd;fill:#5B567E;" d="M126.25,28.5c10.5,2.2,15.75,4.867,15.75,8
				c0,3.134-5.25,5.8-15.75,8c-10.5,2.233-23.15,3.35-37.95,3.35s-27.433-1.116-37.9-3.35c-10.5-2.2-15.75-4.866-15.75-8
				c0-3.133,5.25-5.8,15.75-8c10.467-2.233,23.1-3.35,37.9-3.35S115.75,26.267,126.25,28.5z"/>
			<path style="fill-rule:evenodd;clip-rule:evenodd;fill:#857EB8;" d="M135.85,31c0.801,0.433,1.95,1.05,3.45,1.85
				c1.3,0.7,2.483,1.25,3.55,1.65c-0.633,3.467-3.916,6.267-9.85,8.4c-3.733,1.333-8.116,2.3-13.15,2.899
				c-0.033,0-2.233,0.167-6.6,0.5c-2.634,0.2-4.783,0.533-6.45,1c-2.1,0.634-4.033,1.017-5.8,1.15c-0.7,0.033-2.6,0.05-5.7,0.05
				c-1.033,0-2.883,0.217-5.55,0.65c-2.467,0.433-4.433,0.6-5.9,0.5c-1.633-0.101-3.667-0.434-6.1-1
				c-2.767-0.667-4.75-1.084-5.95-1.25c-6.167-0.2-10.716-0.417-13.65-0.65c-5.167-0.4-9.1-1.816-11.8-4.25
				c-1.033-0.934-2.333-1.75-3.9-2.45c-1.667-0.767-2.867-1.45-3.6-2.05c-0.3-0.2-0.367-1.117-0.2-2.75
				c0.2-1.7,0.267-2.617,0.2-2.75c1.167-0.333,3.267-1.067,6.3-2.2c2.667-1,5.184-1.783,7.55-2.35
				c7.367-1.767,18.417-2.75,33.15-2.95c8.667-0.133,17.933,0.417,27.8,1.65C123.017,27.817,130.417,29.267,135.85,31z"/>
			<path style="fill-rule:evenodd;clip-rule:evenodd;fill:#817AB3;" d="M135.85,30.5c0.467,0.233,1.617,0.9,3.45,2
				c1.4,0.833,2.584,1.417,3.55,1.75c-0.966,4.967-8.633,8.25-23,9.85c-2.899,0.2-5.1,0.351-6.6,0.45
				c-2.634,0.2-4.783,0.517-6.45,0.95c-2.1,0.566-4.033,0.917-5.8,1.05c-0.634,0.033-2.533,0.05-5.7,0.05
				c-1.033,0-2.883,0.2-5.55,0.601c-2.467,0.399-4.433,0.55-5.9,0.45c-1.633-0.067-3.667-0.367-6.1-0.9
				c-2.8-0.634-4.783-1.017-5.95-1.15C65.633,45.4,61.083,45.2,58.15,45c-5.167-0.4-9.1-1.7-11.8-3.9
				c-1.033-0.833-2.333-1.583-3.9-2.25c-1.633-0.733-2.833-1.366-3.6-1.899c-0.3-0.2-0.367-1.034-0.2-2.5
				c0.2-1.6,0.267-2.45,0.2-2.55c1.167-0.3,3.267-0.983,6.3-2.05c2.7-0.9,5.217-1.617,7.55-2.15c7.367-1.6,18.417-2.5,33.15-2.7
				c8.633-0.133,17.9,0.383,27.8,1.55C122.983,27.617,130.384,28.933,135.85,30.5z"/>
			<path style="fill-rule:evenodd;clip-rule:evenodd;fill:#9E6F92;" d="M63.35,29c-4.567,0-7.867-0.367-9.9-1.1
				c5.633-1,11.733-1.717,18.3-2.15c1.733,0.333,2.6,0.75,2.6,1.25c0,0.567-1.083,1.033-3.25,1.4C68.967,28.8,66.383,29,63.35,29z"
				/>
			<path style="fill-rule:evenodd;clip-rule:evenodd;fill:#AE7AA0;" d="M90.85,36.5c0,1.1-0.934,2.05-2.8,2.85
				c-1.867,0.767-4.1,1.15-6.7,1.15c-2.633,0-4.867-0.384-6.7-1.15c-1.867-0.8-2.8-1.75-2.8-2.85c0-1.1,0.933-2.033,2.8-2.8
				c1.833-0.8,4.067-1.2,6.7-1.2c2.6,0,4.833,0.4,6.7,1.2C89.917,34.467,90.85,35.4,90.85,36.5z"/>
			<path style="fill-rule:evenodd;clip-rule:evenodd;fill:#AE7AA0;" d="M101.55,32.25c0,0.567-0.517,1.067-1.55,1.5
				c-1,0.4-2.217,0.6-3.65,0.6c-1.433,0-2.666-0.2-3.699-0.6c-1.034-0.433-1.551-0.933-1.551-1.5s0.517-1.067,1.551-1.5
				c1.033-0.4,2.267-0.6,3.699-0.6c1.434,0,2.65,0.2,3.65,0.6C101.033,31.183,101.55,31.683,101.55,32.25z"/>
			<path style="fill-rule:evenodd;clip-rule:evenodd;fill:#9E6F92;" d="M88.3,25.15c4.566,0,9.217,0.133,13.95,0.4
				c-0.267,0.7-1.366,1.284-3.3,1.75C97.017,27.767,94.733,28,92.1,28c-2.866,0-5.283-0.267-7.25-0.8c-2-0.534-3-1.184-3-1.95
				L88.3,25.15z"/>
			<path style="fill-rule:evenodd;clip-rule:evenodd;fill:#9E6F92;" d="M118.55,38.2c2.533,0.8,3.8,1.767,3.8,2.899
				c0,1.134-1.267,2.101-3.8,2.9c-2.566,0.8-5.633,1.2-9.2,1.2c-3.6,0-6.666-0.4-9.199-1.2c-2.534-0.8-3.801-1.767-3.801-2.9
				c0-1.133,1.267-2.1,3.801-2.899c2.533-0.8,5.6-1.2,9.199-1.2C112.917,37,115.983,37.4,118.55,38.2z"/>
			<path style="fill-rule:evenodd;clip-rule:evenodd;fill:#A9779C;" d="M117.35,29.25c0,0.467-0.616,0.883-1.85,1.25
				c-1.2,0.333-2.667,0.5-4.4,0.5s-3.216-0.167-4.449-0.5c-1.2-0.367-1.801-0.783-1.801-1.25s0.601-0.883,1.801-1.25
				c1.233-0.333,2.716-0.5,4.449-0.5s3.2,0.167,4.4,0.5C116.733,28.367,117.35,28.783,117.35,29.25z"/>
			<path style="fill-rule:evenodd;clip-rule:evenodd;fill:#A17195;" d="M65.35,35c0,1.033-1.167,1.917-3.5,2.65
				c-2.367,0.733-5.2,1.1-8.5,1.1c-3.333,0-6.167-0.366-8.5-1.1c-2.333-0.734-3.5-1.617-3.5-2.65s1.167-1.917,3.5-2.65
				c2.367-0.733,5.2-1.1,8.5-1.1c3.3,0,6.133,0.367,8.5,1.1C64.183,33.083,65.35,33.967,65.35,35z"/>
			<path style="fill-rule:evenodd;clip-rule:evenodd;fill:#906584;" d="M70.85,41.75c0,0.566-0.633,1.033-1.9,1.4
				c-1.3,0.399-2.833,0.6-4.6,0.6c-1.8,0-3.333-0.2-4.6-0.6c-1.267-0.367-1.9-0.834-1.9-1.4c0-0.533,0.633-1,1.9-1.4
				c1.267-0.366,2.8-0.55,4.6-0.55c1.8,0,3.333,0.184,4.6,0.55C70.217,40.75,70.85,41.217,70.85,41.75z"/>
			<path style="fill-rule:evenodd;clip-rule:evenodd;fill:#9E6F92;" d="M136.35,33.75c0,0.767-0.616,1.417-1.85,1.95
				c-1.2,0.533-2.667,0.8-4.4,0.8c-1.767,0-3.25-0.267-4.449-0.8c-1.2-0.534-1.801-1.184-1.801-1.95s0.601-1.417,1.801-1.95
				c1.233-0.533,2.716-0.8,4.449-0.8s3.2,0.267,4.4,0.8C135.733,32.333,136.35,32.983,136.35,33.75z"/>
			
				<use xlink:href="#flash0.ai_Assets_x2F_Isolation_Mode_x2F__x3C_Path_x3E__x5F_5_x5F_0"  width="173.358" height="39.85" x="-0.006" y="-39.85" transform="matrix(1 0 0 -1 5.1001 29)" style="overflow:visible;opacity:0.1992;enable-background:new    ;"/>
			<g>
				<path style="fill-rule:evenodd;clip-rule:evenodd;fill:#4D486B;" d="M77.8,26.1c-0.833,0.3-2.183,0.217-4.05-0.25L77.8,26.1z"/>
				
					<use xlink:href="#flash0.ai_Assets_x2F_Isolation_Mode_x2F__x3C_Path_x3E_"  width="104.789" height="22.63" x="0.011" y="-22.63" transform="matrix(1 0 0 -1 38.5498 25.0498)" style="overflow:visible;opacity:0.1016;enable-background:new    ;"/>
			</g>
			<path style="fill-rule:evenodd;clip-rule:evenodd;fill:#27252F;" d="M28.45,48.35c-4.233,0.9-7.967,1.317-11.2,1.25
				C11.917,49.5,8.467,48.1,6.9,45.4c-0.5-0.9-0.833-1.534-1-1.9c3.467,1.434,7.117,2.267,10.95,2.5c5.333,0.333,10,0.167,14-0.5
				C30.283,46.366,29.483,47.316,28.45,48.35z"/>
			<path style="fill-rule:evenodd;clip-rule:evenodd;fill:#27252F;" d="M167.1,50.25l8.4-2.05c-1.866,1.967-4.483,3.3-7.85,4
				c-2.967,0.566-7.217,0.75-12.75,0.55c-2.601-0.1-4.017,0.2-4.25,0.9c-0.034,0.1,0.216,0.949,0.75,2.55
				c0.966,2.8-2.45,4.633-10.25,5.5c-1.767,0.2-5.634-0.267-11.601-1.4c-6.366-1.2-10-1.8-10.899-1.8c-0.934,0-2.2,0.533-3.801,1.6
				c-2.1,1.5-3.833,2.684-5.199,3.551c-5.5,3.466-11.5,5.199-18,5.199c-10.333,0-18.2-1.566-23.601-4.699
				c-2.267-1.534-3.85-2.567-4.75-3.101c-1.533-0.899-3.083-1.3-4.65-1.2c-8.867,0.634-13.816,0.967-14.85,1
				c-4.233,0.067-9.45-0.416-15.65-1.449c-5.1-0.834-6.8-2.65-5.1-5.45c1-1.634,3.067-3.467,6.2-5.5l2.35-0.95
				c-1.5,1.1-2.85,2.283-4.05,3.55c-2.367,2.533-2.767,4.267-1.2,5.2l4.45,1.7c3.9,1.066,8.25,1.5,13.05,1.3
				c3.833-0.167,8.033-0.434,12.6-0.8c3.133-0.2,5.767-0.101,7.9,0.3c1.767,0.333,5.167,1.717,10.2,4.15
				c5.633,2.3,11.4,3.5,17.3,3.6c5.434,0.1,10.834-1.434,16.2-4.6c3.233-1.9,5.134-2.983,5.7-3.25c2.066-1,4.017-1.467,5.85-1.4
				c1.567,0.033,6.301,0.717,14.2,2.05c5.934,1,10.117,1.066,12.55,0.2c2.101-0.767,3.067-2.384,2.9-4.85
				c-0.1-1.134-0.033-1.9,0.2-2.301c0.366-0.666,1.25-1.033,2.649-1.1c2.101-0.066,4.534-0.05,7.301,0.05
				C161.8,51.3,164.366,50.95,167.1,50.25z"/>
			<path style="fill-rule:evenodd;clip-rule:evenodd;fill:#4D486B;" d="M164.7,39.9c1.866-0.2,3.416-0.45,4.649-0.75L169.9,40
				c0.133,0.767-0.284,1.717-1.25,2.85c-0.967,1.101-5.034,1.367-12.2,0.801L146,42.5l-4.65-4.35l2-3.15l2.601,2.05
				c2.399,1.467,5.2,2.4,8.399,2.8C157.55,40.283,161,40.3,164.7,39.9z"/>
			
				<linearGradient id="SVGID_3_" gradientUnits="userSpaceOnUse" x1="-77.6167" y1="91.7939" x2="-34.9667" y2="91.7939" gradientTransform="matrix(2.344666e-005 -1 1 -0.001 0 2.721008e-004)">
				<stop  offset="0.0275" style="stop-color:#000000"/>
				<stop  offset="0.0627" style="stop-color:#070609;stop-opacity:0.9059"/>
				<stop  offset="0.2196" style="stop-color:#201B27;stop-opacity:0.5765"/>
				<stop  offset="0.3882" style="stop-color:#332B3F;stop-opacity:0.3216"/>
				<stop  offset="0.5608" style="stop-color:#403750;stop-opacity:0.1412"/>
				<stop  offset="0.7529" style="stop-color:#483E5A;stop-opacity:0.0314"/>
				<stop  offset="0.9922" style="stop-color:#4B405D;stop-opacity:0"/>
			</linearGradient>
			<path style="fill-rule:evenodd;clip-rule:evenodd;fill:url(#SVGID_3_);" d="M169.1,51.85c-3.166,0.867-7.899,1.167-14.199,0.9
				c-2.601-0.1-4.017,0.2-4.25,0.9c-0.034,0.1,0.216,0.949,0.75,2.55c0.966,2.8-2.45,4.633-10.25,5.5
				c-1.767,0.2-5.634-0.267-11.601-1.4c-6.366-1.2-10-1.8-10.899-1.8c-0.934,0-2.2,0.533-3.801,1.6
				c-2.1,1.5-3.833,2.684-5.199,3.551c-5.5,3.466-11.5,5.199-18,5.199c-10.333,0-18.2-1.566-23.601-4.699
				c-2.267-1.534-3.85-2.567-4.75-3.101c-1.533-0.899-3.083-1.3-4.65-1.2c-8.867,0.634-13.816,0.967-14.85,1
				c-4.233,0.067-9.45-0.416-15.65-1.449c-5.833-0.967-7.25-3.167-4.25-6.601c1.5-1.733,3.583-3.366,6.25-4.899
				c-3.133,0.866-6.45,1.399-9.95,1.6c-7,0.467-11.434-0.9-13.3-4.1c-3.2-5.4-2.05-8.684,3.45-9.851
				c3.167-0.633,10.017-0.566,20.55,0.2c1.833,0.167,6.783-1.4,14.85-4.7c11.033-3.466,24.233-5.417,39.6-5.85
				c9.4-0.3,19.5,0.25,30.3,1.65c10.233,1.3,17.966,2.917,23.199,4.85c3.101,1.133,6.551,2.85,10.351,5.15
				c2.866,1.733,5.434,2.75,7.7,3.05c2.166,0.3,7.199,0.083,15.1-0.65c6.233,0.1,7.95,2.384,5.15,6.85
				C175.35,48.967,172.667,50.884,169.1,51.85z"/>
			
				<use xlink:href="#flash0.ai_Assets_x2F_Isolation_Mode_x2F__x3C_Path_x3E__x5F_0"  width="85.744" height="12.031" y="-12.038" transform="matrix(1 0 0 -1 45.6001 26.5)" style="overflow:visible;opacity:0.1016;enable-background:new    ;"/>
		</g>
	</g>
</g>
<g id="price_x5F_tag_x5F_pt">
	
		<use xlink:href="#price_x5F_tag_x5F_pt_x5F_mc"  width="-32766" height="-32766" id="price_x5F_tag_x5F_pt_1_" x="16383" y="16383" transform="matrix(1 0 0 -1 91.3496 87.8496)" style="overflow:visible;"/>
</g>
</svg>
