<?xml version="1.0" encoding="iso-8859-1"?>
<!-- Generator: Adobe Illustrator 15.1.0, SVG Export Plug-In . SVG Version: 6.00 Build 0)  -->
<!DOCTYPE svg PUBLIC "-//W3C//DTD SVG 1.1//EN" "http://www.w3.org/Graphics/SVG/1.1/DTD/svg11.dtd">
<svg version="1.1" xmlns="http://www.w3.org/2000/svg" xmlns:xlink="http://www.w3.org/1999/xlink" x="0px" y="0px"
	 width="103.85px" height="144.55px" viewBox="0 0 103.85 144.55" style="enable-background:new 0 0 103.85 144.55;"
	 xml:space="preserve">
<symbol  id="price_x5F_tag_x5F_pt_x5F_mc">
	<g id="Layer_1_2_">
	</g>
</symbol>
<g id="Layer_2">
	<g>
		
			<radialGradient id="SVGID_1_" cx="367.6504" cy="381.9492" r="47.1127" gradientTransform="matrix(-0.8128 0 0 -0.2182 349.5497 235.7586)" gradientUnits="userSpaceOnUse">
			<stop  offset="0" style="stop-color:#000000;stop-opacity:0.2196"/>
			<stop  offset="1" style="stop-color:#000000;stop-opacity:0"/>
		</radialGradient>
		<path style="fill-rule:evenodd;clip-rule:evenodd;fill:url(#SVGID_1_);" d="M50.722,163.658c11.596,0,21.485-1.097,29.667-3.292
			c8.184-2.222,12.274-4.876,12.274-7.965c0-3.116-4.091-5.771-12.274-7.966c-8.182-2.194-18.071-3.292-29.667-3.292
			c-11.596,0-21.471,1.098-29.626,3.292c-8.21,2.194-12.314,4.85-12.314,7.966c0,3.089,4.104,5.743,12.314,7.965
			C29.277,162.562,39.153,163.658,50.722,163.658z"/>
		
			<radialGradient id="SVGID_2_" cx="-355.9004" cy="1166.9502" r="24.2505" gradientTransform="matrix(-0.3839 0 0 -0.0906 -62.15 262.5212)" gradientUnits="userSpaceOnUse">
			<stop  offset="0" style="stop-color:#000000;stop-opacity:0.4392"/>
			<stop  offset="1" style="stop-color:#000000;stop-opacity:0"/>
		</radialGradient>
		<path style="fill-rule:evenodd;clip-rule:evenodd;fill:url(#SVGID_2_);" d="M83.794,156.736c0-0.602-0.908-1.12-2.726-1.556
			c-1.817-0.422-4.012-0.633-6.584-0.633s-4.768,0.211-6.584,0.633c-1.817,0.436-2.727,0.954-2.727,1.556
			c0,0.614,0.909,1.139,2.727,1.573c1.816,0.423,4.012,0.634,6.584,0.634s4.767-0.211,6.584-0.634
			C82.886,157.875,83.794,157.351,83.794,156.736z"/>
		
			<radialGradient id="SVGID_3_" cx="-355.8984" cy="1166.9502" r="24.2486" gradientTransform="matrix(-0.3839 0 0 -0.0906 -99.7994 268.071)" gradientUnits="userSpaceOnUse">
			<stop  offset="0" style="stop-color:#000000;stop-opacity:0.4392"/>
			<stop  offset="1" style="stop-color:#000000;stop-opacity:0"/>
		</radialGradient>
		<path style="fill-rule:evenodd;clip-rule:evenodd;fill:url(#SVGID_3_);" d="M43.418,160.73c-1.817-0.422-4.012-0.633-6.584-0.633
			c-2.572,0-4.767,0.211-6.584,0.633c-1.817,0.436-2.726,0.954-2.726,1.556c0,0.614,0.909,1.139,2.726,1.573
			c1.817,0.423,4.012,0.634,6.584,0.634c2.572,0,4.767-0.211,6.584-0.634c1.817-0.435,2.726-0.959,2.726-1.573
			C46.144,161.685,45.235,161.166,43.418,160.73z"/>
		
			<radialGradient id="SVGID_4_" cx="-355.8984" cy="1166.9502" r="24.2486" gradientTransform="matrix(-0.3839 0 0 -0.0906 -116.9996 256.5212)" gradientUnits="userSpaceOnUse">
			<stop  offset="0" style="stop-color:#000000;stop-opacity:0.4392"/>
			<stop  offset="1" style="stop-color:#000000;stop-opacity:0"/>
		</radialGradient>
		<path style="fill-rule:evenodd;clip-rule:evenodd;fill:url(#SVGID_4_);" d="M26.218,149.181c-1.817-0.422-4.012-0.633-6.584-0.633
			c-2.572,0-4.767,0.211-6.584,0.633c-1.817,0.436-2.726,0.954-2.726,1.556c0,0.614,0.909,1.139,2.726,1.573
			c1.817,0.423,4.012,0.634,6.584,0.634c2.572,0,4.767-0.211,6.584-0.634c1.817-0.435,2.726-0.959,2.726-1.573
			C28.944,150.135,28.035,149.616,26.218,149.181z"/>
		
			<radialGradient id="SVGID_5_" cx="44.1001" cy="148" r="9.3125" gradientTransform="matrix(-1 0 0 -0.2362 96.9004 182.9638)" gradientUnits="userSpaceOnUse">
			<stop  offset="0" style="stop-color:#000000;stop-opacity:0.4392"/>
			<stop  offset="1" style="stop-color:#000000;stop-opacity:0"/>
		</radialGradient>
		<path style="fill-rule:evenodd;clip-rule:evenodd;fill:url(#SVGID_5_);" d="M43.45,148c0,0.6,0.917,1.116,2.75,1.55
			c1.833,0.434,4.034,0.65,6.601,0.65c2.566,0,4.75-0.217,6.55-0.65c1.833-0.434,2.75-0.95,2.75-1.55s-0.917-1.116-2.75-1.55
			c-1.8-0.434-3.983-0.65-6.55-0.65c-2.567,0-4.767,0.217-6.601,0.65C44.367,146.884,43.45,147.4,43.45,148z"/>
		<g>
			<g>
				
					<linearGradient id="SVGID_6_" gradientUnits="userSpaceOnUse" x1="124.5479" y1="-47.5605" x2="166.0626" y2="-47.5605" gradientTransform="matrix(0.1277 0.9918 -0.9669 0.3212 -1.766235e-004 -3.673434e-004)">
					<stop  offset="0" style="stop-color:#DB3170"/>
					<stop  offset="0.2824" style="stop-color:#F974B2"/>
					<stop  offset="0.5333" style="stop-color:#FFA3D3"/>
					<stop  offset="0.7176" style="stop-color:#FA7FB9"/>
					<stop  offset="0.9882" style="stop-color:#E34483"/>
				</linearGradient>
				<polygon style="fill-rule:evenodd;clip-rule:evenodd;fill:url(#SVGID_6_);" points="77.6,130.3 77.1,130.7 74.3,130.9 
					50.35,118.65 55.05,118.6 				"/>
				
					<linearGradient id="SVGID_7_" gradientUnits="userSpaceOnUse" x1="-36.9341" y1="-142.4194" x2="-18.6111" y2="-142.4194" gradientTransform="matrix(-0.9974 0.0723 0 -1.0026 -2.179742e-004 2.122521e-004)">
					<stop  offset="0" style="stop-color:#B02458"/>
					<stop  offset="0.2824" style="stop-color:#B6316E"/>
					<stop  offset="0.5373" style="stop-color:#C34888"/>
					<stop  offset="0.7098" style="stop-color:#B73070"/>
					<stop  offset="0.9882" style="stop-color:#A60846"/>
				</linearGradient>
				<polygon style="fill-rule:evenodd;clip-rule:evenodd;fill:url(#SVGID_7_);" points="74.3,130.9 74.3,157.9 72.25,156.75 
					72.25,131.7 71.35,131.2 71.35,131.15 55.1,122.75 51.7,121.05 51.65,138.85 50,138.85 50.05,120.2 50.35,118.65 				"/>
				<polygon style="fill-rule:evenodd;clip-rule:evenodd;fill:#81043A;" points="55.1,122.75 55,147.9 51.65,148.5 51.65,138.85 
					51.7,121.05 				"/>
				
					<linearGradient id="SVGID_8_" gradientUnits="userSpaceOnUse" x1="-36.9785" y1="-147.5781" x2="-18.6336" y2="-147.5781" gradientTransform="matrix(-0.9962 0.0872 0 -1.0038 -1.299381e-005 -1.000687e-004)">
					<stop  offset="0" style="stop-color:#B02458"/>
					<stop  offset="0.2824" style="stop-color:#B6316E"/>
					<stop  offset="0.5373" style="stop-color:#C34888"/>
					<stop  offset="0.7098" style="stop-color:#B73070"/>
					<stop  offset="0.9882" style="stop-color:#A60846"/>
				</linearGradient>
				<polygon style="fill-rule:evenodd;clip-rule:evenodd;fill:url(#SVGID_8_);" points="51.65,138.85 51.65,148.5 51.5,148.55 
					49.9,147.45 50,138.85 				"/>
				<polygon style="fill-rule:evenodd;clip-rule:evenodd;fill:#FFC4E5;" points="74.55,157.9 74.3,157.9 74.3,130.9 77.1,130.7 
					77.6,130.6 77.65,130.6 77.6,130.65 74.65,131.35 				"/>
				
					<linearGradient id="SVGID_9_" gradientUnits="userSpaceOnUse" x1="127.7764" y1="-57.248" x2="154.7199" y2="-57.248" gradientTransform="matrix(0.1264 0.992 -0.992 0.1264 5.131960e-005 -1.296401e-004)">
					<stop  offset="0" style="stop-color:#DB3170"/>
					<stop  offset="0.2824" style="stop-color:#F974B2"/>
					<stop  offset="0.5333" style="stop-color:#FFA3D3"/>
					<stop  offset="0.7176" style="stop-color:#FA7FB9"/>
					<stop  offset="0.9882" style="stop-color:#E34483"/>
				</linearGradient>
				<path style="fill-rule:evenodd;clip-rule:evenodd;fill:url(#SVGID_9_);" d="M77.6,130.3v0.3l-0.5,0.101L77.6,130.3z
					 M77.6,130.65L77.7,157.4l-3.15,0.5l0.101-26.551L77.6,130.65z"/>
			</g>
			<g>
				<g>
					
						<linearGradient id="SVGID_10_" gradientUnits="userSpaceOnUse" x1="64.1484" y1="-13.0508" x2="115.947" y2="-13.0508" gradientTransform="matrix(0.178 0.984 -0.984 0.178 8.270144e-005 2.070516e-004)">
						<stop  offset="0" style="stop-color:#B02458"/>
						<stop  offset="0.2824" style="stop-color:#B6316E"/>
						<stop  offset="0.5373" style="stop-color:#C34888"/>
						<stop  offset="0.7098" style="stop-color:#B73070"/>
						<stop  offset="0.9882" style="stop-color:#A60846"/>
					</linearGradient>
					<path style="fill-rule:evenodd;clip-rule:evenodd;fill:url(#SVGID_10_);" d="M42.4,78.7c-2.433-1.767-5.083-2.7-7.95-2.8
						c-0.067,0-0.184,0-0.35,0c-0.267,0-0.517,0.017-0.75,0.05c-0.1-0.033-0.217-0.05-0.35-0.05c-1.533,0-2.95,0.233-4.25,0.699
						c-0.3,0.101-0.6,0.233-0.9,0.4c-0.1,0.033-0.2,0.083-0.3,0.15c-0.733,0.333-1.433,0.75-2.1,1.25
						c-0.2,0.166-0.417,0.35-0.65,0.55c-0.1,0.066-0.2,0.149-0.3,0.25c-0.033,0.033-0.067,0.05-0.1,0.05
						c-0.9,0.8-1.75,1.783-2.55,2.95c-0.133,0.166-0.25,0.333-0.35,0.5c-0.1,0.133-0.183,0.267-0.25,0.399
						c-0.333,0.5-0.633,1.034-0.9,1.601c-1.867,3.633-2.667,7.866-2.4,12.7c0.367,5.933,2.25,11,5.65,15.199
						c3.433,4.167,7.417,6.25,11.95,6.25c0.133,0,0.25,0,0.35,0c0.233,0,0.483,0,0.75,0c0.067,0,0.133,0,0.2,0h0.2
						c2.833-0.066,5.35-0.983,7.55-2.75l0.05-0.05l-0.1,0.15c-0.1,0.1-0.233,0.217-0.4,0.35l-1.35,1.101c-0.1,0-0.15,0.033-0.15,0.1
						c-0.133,0.066-0.25,0.134-0.35,0.2c-2.167,1.333-4.566,2-7.2,2c-4.833,0-9.083-2.2-12.75-6.601
						c-3.7-4.366-5.75-9.683-6.15-15.949c-0.167-2.667,0.017-5.15,0.55-7.45c0.233-1.334,0.6-2.617,1.1-3.851
						c0.267-0.666,0.566-1.333,0.9-2c0.5-0.899,1.067-1.767,1.7-2.6c0.7-1.033,1.45-1.934,2.25-2.7
						c0.767-0.733,1.55-1.366,2.35-1.899c0.1-0.067,0.184-0.117,0.25-0.15c0.567-0.366,1.15-0.667,1.75-0.9
						c0.4-0.166,0.767-0.3,1.1-0.399c1.333-0.434,2.75-0.65,4.25-0.65c2.667,0,5.15,0.684,7.45,2.05
						C40.75,77.35,41.6,77.967,42.4,78.7z"/>
					<path style="fill-rule:evenodd;clip-rule:evenodd;fill:#FFB0DD;" d="M35.9,118.85c-4.2-0.233-7.917-2.316-11.15-6.25
						c-3.433-4.199-5.317-9.267-5.65-15.199c-0.267-4.834,0.533-9.067,2.4-12.7c0.2-0.434,0.417-0.834,0.65-1.2l-0.9-0.4
						c0.067-0.133,0.15-0.267,0.25-0.399l0.9,0.3c0.2-0.233,0.4-0.5,0.6-0.8c0.767-1.167,1.617-2.15,2.55-2.95
						c0.034,0,0.067-0.017,0.1-0.05c0.1-0.101,0.2-0.184,0.3-0.25c0.2-0.2,0.417-0.384,0.65-0.55c0.3-0.267,0.633-0.5,1-0.7
						c0.133-0.066,0.233-0.134,0.3-0.2c0.333-0.167,0.65-0.333,0.95-0.5c1.4-0.6,2.9-0.95,4.5-1.05
						c0.233-0.033,0.483-0.05,0.75-0.05c0.167,0,0.283,0,0.35,0c-1.967,0.066-3.8,0.55-5.5,1.449
						c-0.467,0.267-0.917,0.551-1.35,0.851c-1.434,1-2.733,2.333-3.9,4c-0.9,1.267-1.633,2.666-2.2,4.2
						c-1.333,3.233-1.867,6.899-1.6,11c0.333,5.933,2.217,11,5.65,15.199c3.267,4.034,7.034,6.117,11.3,6.25c-0.067,0-0.133,0-0.2,0
						C36.383,118.85,36.133,118.85,35.9,118.85z"/>
					<path style="fill-rule:evenodd;clip-rule:evenodd;fill:#7E0036;" d="M21.25,83.1l0.9,0.4c-0.233,0.366-0.45,0.767-0.65,1.2
						c-1.867,3.633-2.667,7.866-2.4,12.7c0.333,5.933,2.217,11,5.65,15.199c3.233,3.934,6.95,6.017,11.15,6.25
						c-0.1,0-0.217,0-0.35,0c-4.533,0-8.517-2.083-11.95-6.25c-3.4-4.199-5.283-9.267-5.65-15.199
						c-0.267-4.834,0.533-9.067,2.4-12.7C20.617,84.134,20.917,83.6,21.25,83.1z M27.9,77.5L27.85,77c0.3-0.167,0.6-0.3,0.9-0.4
						c1.3-0.466,2.717-0.699,4.25-0.699c0.133,0,0.25,0.017,0.35,0.05c-1.6,0.1-3.1,0.45-4.5,1.05
						C28.55,77.167,28.233,77.333,27.9,77.5z"/>
					
						<linearGradient id="SVGID_11_" gradientUnits="userSpaceOnUse" x1="29.6768" y1="-65.3389" x2="57.0241" y2="-65.3389" gradientTransform="matrix(-0.5604 0.8283 -0.8283 -0.5604 5.055666e-004 -2.315640e-004)">
						<stop  offset="0" style="stop-color:#DB3170"/>
						<stop  offset="0.2824" style="stop-color:#F974B2"/>
						<stop  offset="0.5333" style="stop-color:#FFA3D3"/>
						<stop  offset="0.7176" style="stop-color:#FA7FB9"/>
						<stop  offset="0.9882" style="stop-color:#E34483"/>
					</linearGradient>
					<path style="fill-rule:evenodd;clip-rule:evenodd;fill:url(#SVGID_11_);" d="M27.85,77l0.05,0.5
						c-0.066,0.066-0.167,0.134-0.3,0.2c-0.367,0.2-0.7,0.434-1,0.7c-0.233,0.166-0.45,0.35-0.65,0.55
						c-0.1,0.066-0.2,0.149-0.3,0.25c-0.033,0.033-0.066,0.05-0.1,0.05c-0.933,0.8-1.783,1.783-2.55,2.95
						c-0.2,0.3-0.4,0.566-0.6,0.8l-0.9-0.3c0.1-0.167,0.217-0.334,0.35-0.5c0.8-1.167,1.65-2.15,2.55-2.95
						c0.033,0,0.067-0.017,0.1-0.05c0.1-0.101,0.2-0.184,0.3-0.25c0.233-0.2,0.45-0.384,0.65-0.55c0.667-0.5,1.367-0.917,2.1-1.25
						C27.65,77.083,27.75,77.033,27.85,77z"/>
					
						<linearGradient id="SVGID_12_" gradientUnits="userSpaceOnUse" x1="29.9175" y1="-84.2285" x2="77.193" y2="-84.2285" gradientTransform="matrix(-0.5606 0.8281 -0.8281 -0.5606 4.610419e-004 -8.404255e-006)">
						<stop  offset="0" style="stop-color:#DB3170"/>
						<stop  offset="0.2824" style="stop-color:#F974B2"/>
						<stop  offset="0.5333" style="stop-color:#FFA3D3"/>
						<stop  offset="0.7176" style="stop-color:#FA7FB9"/>
						<stop  offset="0.9882" style="stop-color:#E34483"/>
					</linearGradient>
					<path style="fill-rule:evenodd;clip-rule:evenodd;fill:url(#SVGID_12_);" d="M42.4,78.7c1.267,0.934,2.483,2.1,3.65,3.5
						c3.4,4.166,5.3,9.233,5.7,15.2c0.267,5.3-0.75,9.933-3.05,13.899c-0.267,0.434-0.55,0.867-0.85,1.3
						c-0.333,0.467-0.667,0.917-1,1.351c-0.033,0.033-0.083,0.066-0.15,0.1c-0.6,0.7-1.233,1.334-1.9,1.9
						c-0.033,0-0.066,0.017-0.1,0.05l-0.05,0.05l-0.05,0.05c-2.2,1.767-4.717,2.684-7.55,2.75h-0.2
						c-4.267-0.133-8.033-2.216-11.3-6.25c-3.433-4.199-5.316-9.267-5.65-15.199c-0.267-4.101,0.267-7.767,1.6-11
						c0.567-1.534,1.3-2.934,2.2-4.2c1.167-1.667,2.466-3,3.9-4c0.433-0.3,0.883-0.584,1.35-0.851c1.7-0.899,3.533-1.383,5.5-1.449
						C37.317,76,39.967,76.934,42.4,78.7z"/>
					<g>
						
							<linearGradient id="SVGID_13_" gradientUnits="userSpaceOnUse" x1="47.3013" y1="12.1416" x2="51.312" y2="12.1416" gradientTransform="matrix(0.6406 0.7679 -0.7679 0.6406 1.120567e-005 -5.021691e-004)">
							<stop  offset="0" style="stop-color:#F4E7D7"/>
							<stop  offset="1" style="stop-color:#CCB194"/>
						</linearGradient>
						<path style="fill-rule:evenodd;clip-rule:evenodd;fill:url(#SVGID_13_);" d="M25.3,44.7c0.133,0.5,0.233,1.066,0.3,1.7
							c0.033,0.3,0.05,0.6,0.05,0.9l-0.05-0.05c-0.067-0.033-0.133-0.05-0.2-0.05c-0.767-0.3-1.566-0.5-2.4-0.6
							c-0.033-0.033-0.083-0.05-0.15-0.05c-0.1,0-0.217,0-0.35,0l-3.65,0.1V46.6c-0.233-0.2-0.35-0.633-0.35-1.3
							c0-0.7,0.333-1.367,1-2s1.467-0.95,2.4-0.95c0.7,0,1.283,0.1,1.75,0.3c0.533,0.233,0.95,0.6,1.25,1.1
							C25.067,44.017,25.2,44.333,25.3,44.7z"/>
						
							<linearGradient id="SVGID_14_" gradientUnits="userSpaceOnUse" x1="-33.6626" y1="-44.6001" x2="-25.3376" y2="-44.6001" gradientTransform="matrix(-1 0 0 -1 0 0)">
							<stop  offset="0.0118" style="stop-color:#EFB56D"/>
							<stop  offset="1" style="stop-color:#7B4102"/>
						</linearGradient>
						<path style="fill-rule:evenodd;clip-rule:evenodd;fill:url(#SVGID_14_);" d="M33,47.85c-0.233-0.067-0.517-0.117-0.85-0.15
							c-0.033,0-0.083,0-0.15,0c-0.1,0-0.233,0.017-0.4,0.05c0.167-0.3,0.25-0.583,0.25-0.85c0-0.566-0.217-1.066-0.65-1.5
							c-0.2-0.233-0.467-0.45-0.8-0.65c-0.8-0.433-1.65-0.65-2.55-0.65c-0.934,0-1.583,0.433-1.95,1.3c-0.1,0.267-0.2,0.6-0.3,1
							c-0.067-0.633-0.167-1.2-0.3-1.7c0.034-0.267,0.1-0.517,0.2-0.75c0.033-0.1,0.067-0.167,0.1-0.2
							c0.167-0.367,0.35-0.717,0.55-1.05c0.5-0.7,1.1-1.117,1.8-1.25c0.233-0.067,0.483-0.1,0.75-0.1c1.533,0,2.75,0.367,3.65,1.1
							c0.833,0.767,1.25,1.883,1.25,3.35c0,0.9-0.133,1.55-0.4,1.95C33.167,47.75,33.1,47.783,33,47.85z"/>
						
							<linearGradient id="SVGID_15_" gradientUnits="userSpaceOnUse" x1="-0.5386" y1="-54.7051" x2="2.3951" y2="-54.7051" gradientTransform="matrix(-0.844 0.5363 -0.5363 -0.844 -2.771616e-005 -2.756715e-004)">
							<stop  offset="0" style="stop-color:#F4E7D7"/>
							<stop  offset="1" style="stop-color:#CCB194"/>
						</linearGradient>
						<path style="fill-rule:evenodd;clip-rule:evenodd;fill:url(#SVGID_15_);" d="M31.6,47.75c-0.033,0.1-0.083,0.2-0.15,0.3
							c-0.167,0.2-0.4,0.4-0.7,0.6c-0.033,0.067-0.1,0.133-0.2,0.2c-0.1,0.033-0.683,0.233-1.75,0.6
							c-0.1,0.033-0.233,0.083-0.4,0.15c-0.033,0-0.083,0.017-0.15,0.05c-0.467-0.767-1.117-1.45-1.95-2.05
							c-0.133-0.1-0.267-0.167-0.4-0.2c-0.066-0.033-0.15-0.066-0.25-0.1c0-0.3-0.017-0.6-0.05-0.9c0.1-0.4,0.2-0.733,0.3-1
							c0.367-0.867,1.017-1.3,1.95-1.3c0.9,0,1.75,0.217,2.55,0.65c0.333,0.2,0.6,0.417,0.8,0.65c0.433,0.434,0.65,0.934,0.65,1.5
							C31.85,47.167,31.767,47.45,31.6,47.75z"/>
						
							<linearGradient id="SVGID_16_" gradientUnits="userSpaceOnUse" x1="-18.2109" y1="-57.7842" x2="-13.1655" y2="-57.7842" gradientTransform="matrix(-0.9573 0.289 -0.289 -0.9573 5.436838e-004 1.945198e-004)">
							<stop  offset="0" style="stop-color:#F4E7D7"/>
							<stop  offset="1" style="stop-color:#CCB194"/>
						</linearGradient>
						<path style="fill-rule:evenodd;clip-rule:evenodd;fill:url(#SVGID_16_);" d="M33,47.85c0.5,0.133,0.933,0.4,1.3,0.8
							c0.367,0.467,0.6,1.017,0.7,1.65c0.067,0.2,0.1,0.434,0.1,0.7c0,0.7-0.233,1.267-0.7,1.7c-0.033,0.066-0.05,0.117-0.05,0.15
							c-0.434,0.367-0.917,0.55-1.45,0.55s-1.15-0.117-1.85-0.35H31c-0.467-0.167-1.017-0.383-1.65-0.65c-0.167-1-0.5-1.883-1-2.65
							c-0.033-0.033-0.067-0.067-0.1-0.1c0.067-0.033,0.117-0.05,0.15-0.05c0.167-0.067,0.3-0.117,0.4-0.15
							c1.067-0.367,1.65-0.567,1.75-0.6c0.1-0.067,0.167-0.133,0.2-0.2c0.3-0.2,0.533-0.4,0.7-0.6c0.066-0.1,0.117-0.2,0.15-0.3
							c0.167-0.033,0.3-0.05,0.4-0.05c0.067,0,0.117,0,0.15,0C32.483,47.733,32.767,47.783,33,47.85z"/>
						<g>
							<path style="fill-rule:evenodd;clip-rule:evenodd;fill-opacity:0.1882;" d="M23.9,46.25c0.767,0.333,1.333,0.667,1.7,1
								c-0.067-0.033-0.133-0.05-0.2-0.05c-0.767-0.3-1.566-0.5-2.4-0.6c-0.033-0.033-0.083-0.05-0.15-0.05c-0.1,0-0.217,0-0.35,0
								l-3.65,0.1V46.6c-0.233-0.2-0.35-0.633-0.35-1.3c0-0.7,0.333-1.367,1-2s1.467-0.95,2.4-0.95c0.7,0,1.283,0.1,1.75,0.3
								l-1.3-0.1c-0.167,0-0.333,0.017-0.5,0.05c-1.467,0.066-2.2,0.583-2.2,1.55c0,0.434,0.85,0.917,2.55,1.45
								C22.833,45.833,23.4,46.05,23.9,46.25z M29.4,45.15c-0.367-0.1-0.633-0.15-0.8-0.15c-1.233,0-1.85,0.567-1.85,1.7
								c0,0.5,0.25,0.9,0.75,1.2c0.467,0.267,0.767,0.65,0.9,1.15c0.033,0.067,0.05,0.15,0.05,0.25v0.15
								c0,0.033-0.017,0.083-0.05,0.15c0.167-0.067,0.3-0.117,0.4-0.15c1.067-0.367,1.65-0.567,1.75-0.6
								c0.1-0.067,0.167-0.133,0.2-0.2c0.3-0.2,0.533-0.4,0.7-0.6c0.066-0.1,0.117-0.2,0.15-0.3c0.167-0.3,0.25-0.583,0.25-0.85
								c0-0.566-0.217-1.066-0.65-1.5c-0.067-0.033-0.45-0.1-1.15-0.2C29.817,45.167,29.6,45.15,29.4,45.15z M28.85,43.85
								c0.633,0.1,1.267,0.283,1.9,0.55c1.1,0.533,1.65,1.1,1.65,1.7c0,0.133-0.066,0.3-0.2,0.5c-0.133,0.233-0.2,0.417-0.2,0.55
								s0.033,0.167,0.1,0.1l1.1,0.5c-0.034,0-0.1,0.033-0.2,0.1c0.5,0.133,0.933,0.4,1.3,0.8c0.367,0.467,0.6,1.017,0.7,1.65
								c-0.2-0.333-0.633-0.667-1.3-1c-0.667-0.267-1.2-0.417-1.6-0.45l-0.1-0.1c-0.033,0.033-0.067,0.067-0.1,0.1
								c-0.333,0-0.717,0.15-1.15,0.45c-0.4,0.333-0.933,0.5-1.6,0.5l-0.1,0.05c0.534,0.333,0.8,0.6,0.8,0.8
								c0.033,0.167,0.017,0.583-0.05,1.25c0,0.267,0.333,0.6,1,1c0.067,0.033,0.133,0.083,0.2,0.15
								c-0.467-0.167-1.017-0.383-1.65-0.65c-0.167-1-0.5-1.883-1-2.65c0.033-0.033,0.05-0.083,0.05-0.15
								c-0.033,0-0.083,0.017-0.15,0.05c-0.467-0.767-1.117-1.45-1.95-2.05c-0.133-0.1-0.267-0.167-0.4-0.2
								c-0.066-0.033-0.15-0.066-0.25-0.1c0-0.3-0.017-0.6-0.05-0.9c-0.067-0.633-0.167-1.2-0.3-1.7c0.034-0.267,0.1-0.517,0.2-0.75
								l0.1,0.55c0.566-0.5,1.4-0.75,2.5-0.75C28.333,43.75,28.583,43.783,28.85,43.85z"/>
							<path style="fill-rule:evenodd;clip-rule:evenodd;fill-opacity:0.1608;" d="M28.85,43.85c-0.267-0.067-0.517-0.1-0.75-0.1
								c-1.1,0-1.934,0.25-2.5,0.75l-0.1-0.55c0.033-0.1,0.067-0.167,0.1-0.2c0.167-0.367,0.35-0.717,0.55-1.05
								c0.5-0.7,1.1-1.117,1.8-1.25c-0.167,0.2-0.25,0.5-0.25,0.9c0,0.467,0.066,0.75,0.2,0.85
								C28.233,43.4,28.55,43.617,28.85,43.85z"/>
							<path style="fill-rule:evenodd;clip-rule:evenodd;fill-opacity:0.102;" d="M29.4,45.15l-0.65,0.05
								c-0.6,0.433-0.9,0.933-0.9,1.5c0,0.6,0.333,1.083,1,1.45c0.533,0.333,1.05,0.5,1.55,0.5c0.2,0,0.317,0,0.35,0
								c-0.033,0.067-0.1,0.133-0.2,0.2c-0.1,0.033-0.683,0.233-1.75,0.6c-0.1,0.033-0.233,0.083-0.4,0.15
								c0.033-0.067,0.05-0.117,0.05-0.15V49.3c0-0.1-0.017-0.183-0.05-0.25c-0.133-0.5-0.433-0.883-0.9-1.15
								c-0.5-0.3-0.75-0.7-0.75-1.2c0-1.133,0.617-1.7,1.85-1.7C28.767,45,29.033,45.05,29.4,45.15z M23.9,46.25
								c-0.5-0.2-1.066-0.417-1.7-0.65c-1.7-0.533-2.55-1.017-2.55-1.45c0-0.967,0.733-1.483,2.2-1.55
								c-0.434,0.267-0.65,0.633-0.65,1.1c0,0.533,0.383,1.05,1.15,1.55C23.183,45.75,23.7,46.083,23.9,46.25z M31.9,48.85
								c-0.367,0.4-0.617,0.717-0.75,0.95c-0.133,0.267-0.2,0.633-0.2,1.1c0,0.6,0.3,1.133,0.9,1.6
								c0.533,0.367,1.083,0.55,1.65,0.55l0.85-0.2c-0.434,0.367-0.917,0.55-1.45,0.55s-1.15-0.117-1.85-0.35H31
								c-0.067-0.066-0.133-0.117-0.2-0.15c-0.667-0.4-1-0.733-1-1c0.067-0.667,0.083-1.083,0.05-1.25c0-0.2-0.267-0.467-0.8-0.8
								l0.1-0.05c0.667,0,1.2-0.167,1.6-0.5C31.183,49,31.567,48.85,31.9,48.85z"/>
						</g>
					</g>
					<g>
						<path style="fill-rule:evenodd;clip-rule:evenodd;fill:#7B0037;" d="M17.3,59.95c-0.167,0-0.316-0.017-0.45-0.05
							c-0.3-1.267-0.483-2.066-0.55-2.4c-0.433-2.367-0.267-4.667,0.5-6.9c0.467-1.533,1.267-2.617,2.4-3.25
							c0.6-0.333,1.283-0.55,2.05-0.65c-0.6,0.133-1.15,0.35-1.65,0.65c-1.133,0.633-1.95,1.717-2.45,3.25
							c-0.767,2.233-0.9,4.533-0.4,6.9C16.783,57.833,16.967,58.65,17.3,59.95z M19.75,82.4l-0.05,0.1
							c-6.5-3.1-10.684-6.566-12.55-10.4c-2.1-4.5-0.783-8.1,3.95-10.8c0.767-0.433,1.483-0.783,2.15-1.05
							c0.133-0.033,0.283,0,0.45,0.1c-0.534,0.2-1.117,0.467-1.75,0.8l-0.1,0.05c-0.033,0.033-0.083,0.066-0.15,0.1
							C7,64,5.7,67.6,7.8,72.1C9.733,76.1,13.717,79.533,19.75,82.4z M51.1,75.85c-0.7,0.101-1.366,0.351-2,0.75
							c-0.633,0.434-1.2,1.067-1.7,1.9c-0.533,0.9-0.85,1.717-0.95,2.45c-0.1,0.7-0.184,1.184-0.25,1.45
							c-0.067-0.067-0.117-0.134-0.15-0.2c-0.1-0.066-0.2-0.15-0.3-0.25c0.067-0.267,0.15-0.601,0.25-1c0.1-0.733,0.4-1.55,0.9-2.45
							c0.533-0.833,1.1-1.467,1.7-1.9c0.7-0.433,1.417-0.683,2.15-0.75C50.85,75.816,50.967,75.816,51.1,75.85z"/>
						
							<linearGradient id="SVGID_17_" gradientUnits="userSpaceOnUse" x1="13.667" y1="-49.3369" x2="42.6648" y2="-49.3369" gradientTransform="matrix(-0.5601 0.8284 -0.8284 -0.5601 -4.191995e-004 1.193285e-004)">
							<stop  offset="0" style="stop-color:#DB3170"/>
							<stop  offset="0.2824" style="stop-color:#F974B2"/>
							<stop  offset="0.5333" style="stop-color:#FFA3D3"/>
							<stop  offset="0.7176" style="stop-color:#FA7FB9"/>
							<stop  offset="0.9882" style="stop-color:#E34483"/>
						</linearGradient>
						<path style="fill-rule:evenodd;clip-rule:evenodd;fill:url(#SVGID_17_);" d="M22.4,63.75c-0.066-0.1-0.133-0.217-0.2-0.35
							c-1.3-1.767-2.767-2.867-4.4-3.3c-0.3-1.3-0.466-2.1-0.5-2.4c-0.466-2.4-0.316-4.733,0.45-7c0.5-1.467,1.317-2.534,2.45-3.2
							c0.767-0.433,1.7-0.733,2.8-0.9c0.833,0.1,1.633,0.3,2.4,0.6c0.1,0,0.184,0.033,0.25,0.1c0.233,0.1,0.45,0.2,0.65,0.3
							c0.833,0.6,1.483,1.283,1.95,2.05c1.2,1.733,1.533,3.867,1,6.4c-0.3,0.733-0.717,1.467-1.25,2.2
							C26.533,60.45,24.667,62.283,22.4,63.75z"/>
						
							<linearGradient id="SVGID_18_" gradientUnits="userSpaceOnUse" x1="29.6768" y1="-54.8794" x2="57.0241" y2="-54.8794" gradientTransform="matrix(-0.5604 0.8283 -0.8283 -0.5604 5.055666e-004 -2.315640e-004)">
							<stop  offset="0" style="stop-color:#DB3170"/>
							<stop  offset="0.2824" style="stop-color:#F974B2"/>
							<stop  offset="0.5333" style="stop-color:#FFA3D3"/>
							<stop  offset="0.7176" style="stop-color:#FA7FB9"/>
							<stop  offset="0.9882" style="stop-color:#E34483"/>
						</linearGradient>
						<path style="fill-rule:evenodd;clip-rule:evenodd;fill:url(#SVGID_18_);" d="M17.3,59.95c0.2,0.033,0.367,0.083,0.5,0.15
							c1.633,0.433,3.1,1.533,4.4,3.3c0.066,0.133,0.133,0.25,0.2,0.35c0.267,0.367,0.517,0.767,0.75,1.2
							c2.4,4.167,3.883,7.716,4.45,10.649c0.133,0.5,0.217,0.967,0.25,1.4c-0.833,0.366-1.633,0.833-2.4,1.4
							c-0.2,0.166-0.417,0.35-0.65,0.55c-0.1,0.066-0.2,0.149-0.3,0.25c-0.033,0.033-0.067,0.05-0.1,0.05
							c-0.9,0.8-1.75,1.783-2.55,2.95c-0.133,0.166-0.25,0.333-0.35,0.5c-0.733-0.367-1.217-0.601-1.45-0.7
							c-5.667-2.833-9.417-6.167-11.25-10c-2.1-4.467-0.8-8.067,3.9-10.8c0.767-0.434,1.5-0.767,2.2-1c0.1-0.067,0.184-0.1,0.25-0.1
							c-0.188-0.063-0.346-0.054-0.475,0.025c0.129-0.085,0.288-0.144,0.475-0.175c0.333-0.034,0.667-0.05,1-0.05
							c0.067,0,0.133,0,0.2,0c0.066,0,0.117,0,0.15,0c0.133,0,0.25,0,0.35,0C16.983,59.933,17.133,59.95,17.3,59.95z"/>
						<path style="fill-rule:evenodd;clip-rule:evenodd;fill:#FFB0DD;" d="M21.25,83.05c-0.233-0.1-0.467-0.2-0.7-0.3
							c-0.233-0.1-0.5-0.217-0.8-0.35C13.717,79.533,9.733,76.1,7.8,72.1C5.7,67.6,7,64,11.7,61.3c0.066-0.033,0.117-0.066,0.15-0.1
							l0.1-0.05c0.633-0.333,1.216-0.6,1.75-0.8c0.1-0.033,0.183-0.067,0.25-0.1c0.133-0.033,0.25-0.067,0.35-0.1h0.35l0.025-0.025
							c0.129-0.079,0.288-0.087,0.475-0.025c-0.066,0-0.15,0.033-0.25,0.1c-0.7,0.233-1.433,0.566-2.2,1C8,63.933,6.7,67.533,8.8,72
							c1.833,3.833,5.583,7.167,11.25,10c0.233,0.1,0.717,0.333,1.45,0.7C21.433,82.833,21.35,82.95,21.25,83.05z M46.2,82.4
							c0.066-0.267,0.15-0.75,0.25-1.45c0.1-0.733,0.417-1.55,0.95-2.45c0.5-0.833,1.067-1.467,1.7-1.9
							c0.633-0.399,1.3-0.649,2-0.75c0.034,0,0.067,0,0.101,0c0.166-0.033,0.3-0.05,0.399-0.05c0.2,0,0.4,0.017,0.601,0.05
							c0.233,0.034,0.434,0.067,0.6,0.101c-0.633,0.1-0.983,0.166-1.05,0.2c-0.767,0.066-1.483,0.316-2.15,0.75
							c-0.633,0.399-1.2,1.033-1.7,1.899c-0.5,0.9-0.816,1.7-0.95,2.4c-0.1,0.566-0.217,1.166-0.35,1.8
							C46.433,82.8,46.3,82.6,46.2,82.4z"/>
						
							<linearGradient id="SVGID_19_" gradientUnits="userSpaceOnUse" x1="49.1484" y1="0.835" x2="73.3452" y2="0.835" gradientTransform="matrix(0.1746 0.9846 -0.9846 0.1746 2.279580e-004 1.425594e-004)">
							<stop  offset="0" style="stop-color:#B02458"/>
							<stop  offset="0.2824" style="stop-color:#DD4A8E"/>
							<stop  offset="0.5333" style="stop-color:#F264AE"/>
							<stop  offset="0.7176" style="stop-color:#E54892"/>
							<stop  offset="0.9882" style="stop-color:#A60846"/>
						</linearGradient>
						<path style="fill-rule:evenodd;clip-rule:evenodd;fill:url(#SVGID_19_);" d="M19.75,82.4c0.3,0.133,0.567,0.25,0.8,0.35
							c0.233,0.1,0.467,0.2,0.7,0.3c-0.067,0.134-0.133,0.267-0.2,0.4h-2c-7.4-2.934-12.183-6.533-14.35-10.8
							c-1.034-4.2-0.317-7.566,2.15-10.1c0.533-0.4,1.083-0.767,1.65-1.1c1.133-0.633,2.2-1.05,3.2-1.25l3.45-0.25
							c-0.188,0.031-0.346,0.089-0.475,0.175L14.65,60.15H14.3c-0.1,0.033-0.216,0.067-0.35,0.1c-0.067,0.033-0.15,0.067-0.25,0.1
							c-0.167-0.1-0.317-0.133-0.45-0.1c-0.667,0.267-1.383,0.617-2.15,1.05C6.367,64,5.05,67.6,7.15,72.1
							c1.867,3.833,6.05,7.3,12.55,10.4L19.75,82.4z"/>
						
							<linearGradient id="SVGID_20_" gradientUnits="userSpaceOnUse" x1="38.689" y1="-80.1553" x2="45.1729" y2="-80.1553" gradientTransform="matrix(-0.4966 0.868 -0.868 -0.4966 9.912252e-005 -1.966655e-004)">
							<stop  offset="0" style="stop-color:#B02458"/>
							<stop  offset="0.2824" style="stop-color:#DD4A8E"/>
							<stop  offset="0.5333" style="stop-color:#F264AE"/>
							<stop  offset="0.7176" style="stop-color:#E54892"/>
							<stop  offset="0.9882" style="stop-color:#A60846"/>
						</linearGradient>
						<path style="fill-rule:evenodd;clip-rule:evenodd;fill:url(#SVGID_20_);" d="M51.1,75.85c-0.133-0.033-0.25-0.033-0.35,0
							c-0.733,0.067-1.45,0.317-2.15,0.75c-0.6,0.434-1.167,1.067-1.7,1.9c-0.5,0.9-0.8,1.717-0.9,2.45
							c-0.1,0.399-0.183,0.733-0.25,1c-0.533-0.634-1.083-1.233-1.65-1.8c0.3-0.9,0.733-1.767,1.3-2.601
							c0.333-0.467,0.667-0.899,1-1.3c0.233-0.2,0.467-0.366,0.7-0.5c0.066-0.066,0.133-0.116,0.2-0.15
							c1.267-0.199,2.7-0.133,4.3,0.2c-0.1,0-0.233,0.017-0.399,0.05C51.167,75.85,51.134,75.85,51.1,75.85z"/>
						
							<linearGradient id="SVGID_21_" gradientUnits="userSpaceOnUse" x1="23.0947" y1="-88.9585" x2="45.0613" y2="-88.9585" gradientTransform="matrix(-0.5595 0.8288 -0.8288 -0.5595 5.446076e-004 -1.534224e-004)">
							<stop  offset="0" style="stop-color:#DB3170"/>
							<stop  offset="0.2824" style="stop-color:#F974B2"/>
							<stop  offset="0.5333" style="stop-color:#FFA3D3"/>
							<stop  offset="0.7176" style="stop-color:#FA7FB9"/>
							<stop  offset="0.9882" style="stop-color:#E34483"/>
						</linearGradient>
						<path style="fill-rule:evenodd;clip-rule:evenodd;fill:url(#SVGID_21_);" d="M46.6,83c0.133-0.634,0.25-1.233,0.35-1.8
							c0.133-0.7,0.45-1.5,0.95-2.4c0.5-0.866,1.067-1.5,1.7-1.899c0.667-0.434,1.383-0.684,2.15-0.75
							c0.066-0.034,0.417-0.101,1.05-0.2c0.101,0.033,0.2,0.066,0.3,0.1c0.534,0.2,1.067,0.5,1.601,0.9
							c0.633,0.5,1.166,1.133,1.6,1.899c0.7,1.4,0.867,2.867,0.5,4.4c-0.333,1.6-1.283,3.066-2.85,4.4
							c-1.267,1.066-2.483,1.899-3.65,2.5C49.467,87.517,48.233,85.134,46.6,83z"/>
						<g>
							<path style="fill-rule:evenodd;clip-rule:evenodd;fill-opacity:0.1569;" d="M16.8,59.7c-0.133-0.067-0.267-0.15-0.4-0.25
								c-0.133-0.034-0.617-0.434-1.45-1.2c-0.267-0.233-0.55-0.683-0.85-1.35c-0.233-0.433-0.417-0.733-0.55-0.9
								c0-0.1-0.017-0.2-0.05-0.3c-0.033-1.133,0.083-2.267,0.35-3.4c0,0.967,0.35,2,1.05,3.1c0.434,0.7,0.867,1.25,1.3,1.65
								c0.033,0.133,0.066,0.284,0.1,0.45C16.367,57.833,16.533,58.567,16.8,59.7z M19.65,82.6c-0.6-0.1-1.55-0.316-2.85-0.649
								c-0.6-0.134-1.417-0.351-2.45-0.65c-4.767-2.5-7.983-5.383-9.65-8.65c-0.567-2.333-0.6-4.4-0.1-6.2
								c-0.1,0.533-0.15,0.933-0.15,1.2c0,3.8,1.667,7.017,5,9.65c2.367,1.9,4.716,3.084,7.05,3.55c1,0.534,2.067,1.084,3.2,1.65
								C19.7,82.533,19.683,82.566,19.65,82.6z M19.1,83.45h1.95c-0.133,0.2-0.267,0.383-0.4,0.55c-0.4,0.434-1.066,1.1-2,2
								c-0.5,0.5-0.933,1.017-1.3,1.55c0.167-0.467,0.333-0.95,0.5-1.45c0.267-0.666,0.566-1.333,0.9-2
								C18.883,83.9,19,83.684,19.1,83.45z M46.2,80.1c-0.767-0.566-1.267-1.033-1.5-1.399c0.233-0.367,0.466-0.75,0.7-1.15
								c0.333-0.467,0.667-0.899,1-1.3c0.233-0.2,0.467-0.366,0.7-0.5c0.066-0.066,0.133-0.116,0.2-0.15c0.1,0,0.2,0,0.3,0
								c-0.4,0.267-0.65,0.517-0.75,0.75c-0.167,0.233-0.25,0.584-0.25,1.051c0,0.366,0.083,0.699,0.25,1
								c0.033,0.033,0.05,0.083,0.05,0.149C46.567,79.05,46.333,79.566,46.2,80.1z"/>
							<path style="fill-rule:evenodd;clip-rule:evenodd;fill-opacity:0.251;" d="M13.55,56c0.133,0.167,0.317,0.467,0.55,0.9
								c0.3,0.667,0.583,1.117,0.85,1.35c0.833,0.767,1.316,1.167,1.45,1.2c0.133,0.1,0.267,0.183,0.4,0.25
								c0,0.066,0.017,0.133,0.05,0.2c-0.1,0-0.217,0-0.35,0c-0.033,0-0.083,0-0.15,0c-0.067,0-0.133,0-0.2,0
								c-0.333,0-0.667,0.017-1,0.05L14.25,60c-0.233-1.167-0.383-1.883-0.45-2.15C13.667,57.217,13.583,56.6,13.55,56z M14.35,81.3
								c1.033,0.3,1.85,0.517,2.45,0.65c1.3,0.333,2.25,0.55,2.85,0.649c0.133,0.034,0.233,0.034,0.3,0
								c0.2,0.067,0.4,0.117,0.6,0.15c0.233,0.1,0.467,0.2,0.7,0.3c-0.067,0.134-0.133,0.267-0.2,0.4H19.1h-0.05
								C17.35,82.75,15.783,82.033,14.35,81.3z M46.2,80.1c-0.1,0.267-0.167,0.551-0.2,0.851c-0.1,0.399-0.183,0.733-0.25,1
								c-0.533-0.634-1.083-1.233-1.65-1.8c0.167-0.5,0.367-0.983,0.6-1.45C44.933,79.066,45.433,79.533,46.2,80.1z"/>
						</g>
					</g>
					<g>
						<path style="fill-rule:evenodd;clip-rule:evenodd;fill-opacity:0.149;" d="M4.7,72.65c-0.267-1.133-0.417-2.2-0.45-3.2
							l9.65-6.2L22,80.6l-0.85,4.2l-4.3,4.5c0.267-1.133,0.6-2.2,1-3.2c0.267-0.666,0.566-1.333,0.9-2
							C18.883,83.9,19,83.684,19.1,83.45h-0.05C11.65,80.517,6.867,76.917,4.7,72.65z M14.3,60.2c-0.3-1.4-0.466-2.184-0.5-2.35
							c-0.433-2.2-0.333-4.333,0.3-6.4l3.4-2.5l5.4,0.8c-2.767,3.033-4.133,5.967-4.1,8.8c-0.533,0.034-1.017,0.633-1.45,1.8
							C16.183,59.85,15.167,59.8,14.3,60.2z M24.15,87.85c-1.867,6.733-0.4,13.834,4.4,21.301c3.233,5.433,8.017,6.649,14.35,3.649
							l-1.85,5.851c-1.4,0.666-2.966,1.1-4.7,1.3c-5.233-2.033-9.3-5.134-12.2-9.3c-3.9-7.034-5.233-12.767-4-17.2L24.15,87.85z
							 M44.85,81.25L44.15,80c0.067-0.134,0.133-0.267,0.2-0.4l10.55,0.45l-6,6.101L44.85,81.25z"/>
					</g>
				</g>
				<g>
					
						<radialGradient id="SVGID_22_" cx="-27" cy="-53" r="9.1125" gradientTransform="matrix(-1 0 0 1 0 106)" gradientUnits="userSpaceOnUse">
						<stop  offset="0" style="stop-color:#B2C259"/>
						<stop  offset="0.9843" style="stop-color:#5D6E2C"/>
					</radialGradient>
					<path style="fill-rule:evenodd;clip-rule:evenodd;fill:url(#SVGID_22_);" d="M21.6,50c0.633-0.133,1.3-0.083,2,0.15
						c0.566,0.233,1.1,0.55,1.6,0.95c1.933,1.633,2.3,3.517,1.1,5.65c-0.9,1.567-2.1,2.867-3.6,3.9
						c-0.067,0.033-0.133,0.067-0.2,0.1c-0.6-1.267-1.683-2.05-3.25-2.35c-0.667-3-0.55-5.267,0.35-6.8c0.6-0.7,1.233-1.2,1.9-1.5
						C21.533,50.067,21.567,50.033,21.6,50z"/>
					
						<radialGradient id="SVGID_23_" cx="-26.5498" cy="-53.7998" r="9.9" gradientTransform="matrix(-1 0 0 1 0 107.5996)" gradientUnits="userSpaceOnUse">
						<stop  offset="0" style="stop-color:#9C9F6F"/>
						<stop  offset="1" style="stop-color:#3A4B1B"/>
					</radialGradient>
					<path style="fill-rule:evenodd;clip-rule:evenodd;fill:url(#SVGID_23_);" d="M22.5,60.75c0.033,0.033,0.067,0.067,0.1,0.1
						c1.767-1,3.183-2.417,4.25-4.25c1.2-2.1,0.833-3.983-1.1-5.65c-0.5-0.4-1.033-0.717-1.6-0.95c-0.933-0.233-1.783-0.233-2.55,0
						c-0.033,0.033-0.067,0.067-0.1,0.1c-0.667,0.3-1.3,0.8-1.9,1.5c-0.9,1.533-1.017,3.8-0.35,6.8
						C20.817,58.7,21.9,59.483,22.5,60.75z M22.2,60.9c-0.7-1.2-1.85-1.917-3.45-2.15c-0.633-2.967-0.6-5.3,0.1-7
						c0.033-0.033,0.05-0.067,0.05-0.1c0.1-0.133,0.184-0.283,0.25-0.45c1.4-1.7,3.083-2.25,5.05-1.65
						c0.633,0.2,1.216,0.55,1.75,1.05c2.133,1.8,2.533,3.867,1.2,6.2c-1.167,2-2.733,3.55-4.7,4.65
						C22.417,61.25,22.333,61.067,22.2,60.9z"/>
					
						<radialGradient id="SVGID_24_" cx="-27" cy="-53" r="9.1125" gradientTransform="matrix(-1 0 0 1 0 106)" gradientUnits="userSpaceOnUse">
						<stop  offset="0" style="stop-color:#F8FBCA"/>
						<stop  offset="1" style="stop-color:#607042"/>
					</radialGradient>
					<path style="fill-rule:evenodd;clip-rule:evenodd;fill:url(#SVGID_24_);" d="M21.6,50c0.767-0.233,1.617-0.233,2.55,0
						c0.567,0.233,1.1,0.55,1.6,0.95c1.933,1.667,2.3,3.55,1.1,5.65c-1.067,1.833-2.483,3.25-4.25,4.25
						c-0.033-0.033-0.067-0.067-0.1-0.1c0.067-0.033,0.133-0.067,0.2-0.1c1.5-1.033,2.7-2.333,3.6-3.9
						c1.2-2.133,0.833-4.017-1.1-5.65c-0.5-0.4-1.034-0.717-1.6-0.95C22.9,49.917,22.233,49.867,21.6,50z"/>
					
						<radialGradient id="SVGID_25_" cx="-19.6001" cy="-66.7998" r="13.025" gradientTransform="matrix(-1 0 0 1 0 133.5996)" gradientUnits="userSpaceOnUse">
						<stop  offset="0" style="stop-color:#B2C259"/>
						<stop  offset="0.9843" style="stop-color:#5D6E2C"/>
					</radialGradient>
					<path style="fill-rule:evenodd;clip-rule:evenodd;fill:url(#SVGID_25_);" d="M10.8,66.75c0.3-0.433,0.6-0.833,0.9-1.2
						c0.833-0.833,1.816-1.433,2.95-1.8c0.3-0.067,0.617-0.083,0.95-0.05c2.1-0.067,4.017,1.35,5.75,4.25
						c1.7,2.667,2.917,5.649,3.65,8.95c0,0.033-0.033,0.066-0.1,0.1c-1.467,0.767-2.5,1.816-3.1,3.15c-1.8-0.5-4.1-1.967-6.9-4.4
						c-2.8-2.434-4.25-4.383-4.35-5.85C10.45,68.533,10.533,67.483,10.8,66.75z"/>
					
						<radialGradient id="SVGID_26_" cx="-19.6001" cy="-66.7998" r="13.025" gradientTransform="matrix(-1 0 0 1 0 133.5996)" gradientUnits="userSpaceOnUse">
						<stop  offset="0" style="stop-color:#F8FBCA"/>
						<stop  offset="1" style="stop-color:#607042"/>
					</radialGradient>
					<path style="fill-rule:evenodd;clip-rule:evenodd;fill:url(#SVGID_26_);" d="M25,76.9c-0.733-3.301-1.95-6.284-3.65-8.95
						c-1.733-2.9-3.65-4.317-5.75-4.25c-0.333-0.034-0.65-0.017-0.95,0.05c-1.133,0.367-2.117,0.967-2.95,1.8
						c-0.3,0.367-0.6,0.767-0.9,1.2c0.067-0.133,0.133-0.233,0.2-0.3c0.2-0.333,0.383-0.633,0.55-0.9c0.867-1.133,2-1.9,3.4-2.3
						c0.267-0.067,0.583-0.083,0.95-0.05c2.067-0.1,3.967,1.283,5.7,4.15c1.8,2.833,3.066,5.95,3.8,9.35
						C25.267,76.733,25.133,76.8,25,76.9z"/>
					
						<radialGradient id="SVGID_27_" cx="-18.7998" cy="-67.9502" r="12.9" gradientTransform="matrix(-1 0 0 1 0 135.9004)" gradientUnits="userSpaceOnUse">
						<stop  offset="0" style="stop-color:#9C9F6F"/>
						<stop  offset="1" style="stop-color:#3A4B1B"/>
					</radialGradient>
					<path style="fill-rule:evenodd;clip-rule:evenodd;fill:url(#SVGID_27_);" d="M10.55,66.25c0.967-1.733,2.383-2.883,4.25-3.45
						c0.3-0.033,0.633-0.033,1,0c2.2-0.1,4.25,1.383,6.15,4.45c1.9,3,3.25,6.283,4.05,9.85c-1.733,0.801-3.05,2.051-3.95,3.75
						c-0.233-0.066-0.733-0.25-1.5-0.55c-1.2-0.467-3.133-1.767-5.8-3.899c-2.633-2.233-4.117-3.833-4.45-4.8
						c-0.3-1.033-0.45-1.967-0.45-2.8C9.85,67.9,10.083,67.05,10.55,66.25z M10.8,66.75c-0.267,0.733-0.35,1.783-0.25,3.15
						c0.1,1.467,1.55,3.417,4.35,5.85c2.8,2.434,5.1,3.9,6.9,4.4c0.6-1.334,1.633-2.384,3.1-3.15c0.067-0.033,0.1-0.066,0.1-0.1
						c0.133-0.101,0.267-0.167,0.4-0.2c-0.733-3.4-2-6.517-3.8-9.35c-1.733-2.867-3.633-4.25-5.7-4.15
						c-0.367-0.034-0.683-0.017-0.95,0.05c-1.4,0.4-2.534,1.167-3.4,2.3c-0.167,0.267-0.35,0.567-0.55,0.9
						C10.933,66.517,10.867,66.617,10.8,66.75z"/>
					
						<radialGradient id="SVGID_28_" cx="-42.5" cy="-88.8501" r="24.1625" gradientTransform="matrix(-1 0 0 1 0 177.7002)" gradientUnits="userSpaceOnUse">
						<stop  offset="0" style="stop-color:#9C9F6F"/>
						<stop  offset="1" style="stop-color:#3A4B1B"/>
					</radialGradient>
					<path style="fill-rule:evenodd;clip-rule:evenodd;fill:url(#SVGID_28_);" d="M34.55,79.25c0.1,0,0.167,0,0.2,0
						c0.133,0,0.267,0,0.4,0h0.1c0.067,0,0.2,0,0.4,0c3.733,0,7.033,1.733,9.9,5.2c2.867,3.5,4.434,7.717,4.7,12.649
						c0.333,4.967-0.717,9.184-3.15,12.65c-0.233,0.333-0.483,0.65-0.75,0.95c-1.1,1.366-2.333,2.416-3.7,3.149l-0.1,0.101h-0.1
						c-1.667,1.033-3.5,1.55-5.5,1.55c-0.1,0-0.2,0-0.3,0c-3.667-0.066-6.883-1.833-9.65-5.3c-2.733-3.4-4.3-7.45-4.7-12.15
						c0-0.066-0.017-0.149-0.05-0.25v-0.1c0-0.101,0-0.2,0-0.3c-0.1-1.834-0.033-3.584,0.2-5.25c0.5-2.801,1.533-5.317,3.1-7.551
						c1.233-1.899,2.667-3.283,4.3-4.149c1.233-0.7,2.6-1.101,4.1-1.2c0.133,0,0.283,0,0.45,0
						C34.433,79.25,34.483,79.25,34.55,79.25z M25.95,85.05c-0.034,0.066-0.067,0.134-0.1,0.2c-0.067,0.066-0.133,0.15-0.2,0.25
						l-0.05,0.15c-0.067,0.033-0.117,0.083-0.15,0.149c-2.034,3.233-2.934,7.084-2.7,11.55c0.3,4.801,1.817,8.9,4.55,12.301
						c2.767,3.433,5.967,5.149,9.6,5.149c1.934,0,3.684-0.517,5.25-1.55h0.1c0.067-0.066,0.117-0.1,0.15-0.1
						c1.3-0.667,2.483-1.667,3.55-3c0.267-0.301,0.483-0.601,0.65-0.9c2.333-3.333,3.367-7.384,3.1-12.15
						c-0.3-4.733-1.8-8.783-4.5-12.149c-2.8-3.367-5.983-5.05-9.55-5.05c-0.2,0-0.333,0-0.4,0h-0.1c-0.133,0-0.25,0-0.35,0
						c-0.066,0-0.133,0-0.2,0c-0.067,0-0.133,0-0.2,0c-0.133,0-0.267,0.017-0.4,0.05c-1.433,0.133-2.733,0.5-3.9,1.1
						C28.533,81.917,27.15,83.25,25.95,85.05z"/>
					
						<radialGradient id="SVGID_29_" cx="-42.5" cy="-88.8501" r="24.1625" gradientTransform="matrix(-1 0 0 1 0 177.7002)" gradientUnits="userSpaceOnUse">
						<stop  offset="0" style="stop-color:#F8FBCA"/>
						<stop  offset="1" style="stop-color:#607042"/>
					</radialGradient>
					<path style="fill-rule:evenodd;clip-rule:evenodd;fill:url(#SVGID_29_);" d="M46.6,109.25c2-3.2,2.867-7.017,2.6-11.45
						c-0.267-4.733-1.784-8.783-4.55-12.149c-2.733-3.334-5.883-5-9.45-5c-0.2,0-0.367,0-0.5,0h-0.05c-0.133,0-0.233,0-0.3,0
						c-0.067,0-0.15,0-0.25,0c-0.033,0-0.083,0-0.15,0c-0.167,0-0.317,0.017-0.45,0.05c-1.4,0.1-2.7,0.483-3.9,1.149
						c-1.333,0.7-2.55,1.767-3.65,3.2c1.2-1.8,2.583-3.133,4.15-4c1.167-0.6,2.467-0.967,3.9-1.1c0.133-0.033,0.267-0.05,0.4-0.05
						c0.067,0,0.133,0,0.2,0c0.066,0,0.133,0,0.2,0c0.1,0,0.217,0,0.35,0h0.1c0.067,0,0.2,0,0.4,0c3.567,0,6.75,1.683,9.55,5.05
						c2.7,3.366,4.2,7.416,4.5,12.149C49.967,101.866,48.933,105.917,46.6,109.25z"/>
					
						<radialGradient id="SVGID_30_" cx="-42.5" cy="-88.8501" r="24.1625" gradientTransform="matrix(-1 0 0 1 0 177.7002)" gradientUnits="userSpaceOnUse">
						<stop  offset="0" style="stop-color:#B2C259"/>
						<stop  offset="0.9843" style="stop-color:#5D6E2C"/>
					</radialGradient>
					<path style="fill-rule:evenodd;clip-rule:evenodd;fill:url(#SVGID_30_);" d="M25.95,85.05c1.1-1.434,2.316-2.5,3.65-3.2
						c1.2-0.666,2.5-1.05,3.9-1.149c0.133-0.033,0.283-0.05,0.45-0.05c0.066,0,0.117,0,0.15,0c0.1,0,0.183,0,0.25,0
						c0.066,0,0.167,0,0.3,0h0.05c0.133,0,0.3,0,0.5,0c3.566,0,6.716,1.666,9.45,5c2.767,3.366,4.283,7.416,4.55,12.149
						c0.267,4.434-0.6,8.25-2.6,11.45c-0.167,0.3-0.383,0.6-0.65,0.9c-1.067,1.333-2.25,2.333-3.55,3c-0.033,0-0.083,0.033-0.15,0.1
						h-0.1c-1.566,1.033-3.316,1.55-5.25,1.55c-3.633,0-6.833-1.717-9.6-5.149c-2.733-3.4-4.25-7.5-4.55-12.301
						c-0.233-4.466,0.667-8.316,2.7-11.55c0.033-0.066,0.083-0.116,0.15-0.149l0.05-0.15c0.067-0.1,0.133-0.184,0.2-0.25
						C25.883,85.184,25.917,85.116,25.95,85.05z"/>
					
						<radialGradient id="SVGID_31_" cx="-55.3501" cy="-81" r="5.9375" gradientTransform="matrix(-1 0 0 1 0 162)" gradientUnits="userSpaceOnUse">
						<stop  offset="0" style="stop-color:#9C9F6F"/>
						<stop  offset="1" style="stop-color:#3A4B1B"/>
					</radialGradient>
					<path style="fill-rule:evenodd;clip-rule:evenodd;fill:url(#SVGID_31_);" d="M51.85,78.5c-0.833,0.1-1.55,0.65-2.149,1.65
						c-0.967,1.399-1.617,2.633-1.95,3.699c0.767,1.167,1.433,2.4,2,3.7c0.033,0.066,0.067,0.134,0.1,0.2
						c0.933-0.333,1.85-0.833,2.75-1.5c0.9-0.667,1.567-1.333,2-2c0.5-0.7,0.717-1.684,0.65-2.95c-0.033-1.267-0.733-2.133-2.1-2.6
						C52.717,78.533,52.283,78.467,51.85,78.5z M55.65,81.05c0.033,1.434-0.2,2.533-0.7,3.3c-0.467,0.733-1.2,1.467-2.2,2.2
						c-1.033,0.733-2.067,1.3-3.1,1.7c-0.1-0.167-0.183-0.333-0.25-0.5c-0.6-1.366-1.316-2.65-2.15-3.85V83.85
						c0.1-0.199,0.2-0.449,0.3-0.75l0.6-1.3c0.333-0.666,0.733-1.35,1.2-2.05c1.033-1.6,2.333-2.134,3.9-1.6
						C54.783,78.717,55.583,79.684,55.65,81.05z"/>
					
						<radialGradient id="SVGID_32_" cx="-54.4502" cy="-81.3501" r="5.525" gradientTransform="matrix(-1 0 0 1 0 162.7002)" gradientUnits="userSpaceOnUse">
						<stop  offset="0" style="stop-color:#F8FBCA"/>
						<stop  offset="1" style="stop-color:#607042"/>
					</radialGradient>
					<path style="fill-rule:evenodd;clip-rule:evenodd;fill:url(#SVGID_32_);" d="M49.75,87.55c0.8-0.333,1.583-0.767,2.35-1.3
						c0.9-0.667,1.584-1.333,2.051-2c0.466-0.7,0.666-1.684,0.6-2.95c-0.033-1.267-0.733-2.133-2.1-2.6
						c-0.267-0.101-0.534-0.167-0.801-0.2c0.434-0.033,0.867,0.033,1.301,0.2c1.366,0.467,2.066,1.333,2.1,2.6
						c0.066,1.267-0.15,2.25-0.65,2.95c-0.433,0.667-1.1,1.333-2,2c-0.899,0.667-1.816,1.167-2.75,1.5
						C49.817,87.684,49.783,87.616,49.75,87.55z"/>
					
						<radialGradient id="SVGID_33_" cx="-54.4502" cy="-81.3501" r="5.525" gradientTransform="matrix(-1 0 0 1 0 162.7002)" gradientUnits="userSpaceOnUse">
						<stop  offset="0" style="stop-color:#B2C259"/>
						<stop  offset="0.9843" style="stop-color:#5D6E2C"/>
					</radialGradient>
					<path style="fill-rule:evenodd;clip-rule:evenodd;fill:url(#SVGID_33_);" d="M51.85,78.5c0.267,0.033,0.534,0.1,0.801,0.2
						c1.366,0.467,2.066,1.333,2.1,2.6c0.066,1.267-0.134,2.25-0.6,2.95c-0.467,0.667-1.15,1.333-2.051,2
						c-0.767,0.533-1.55,0.967-2.35,1.3c-0.567-1.3-1.233-2.533-2-3.7c0.333-1.066,0.983-2.3,1.95-3.699
						C50.3,79.15,51.017,78.6,51.85,78.5z"/>
					<g>
						<path style="fill-rule:evenodd;clip-rule:evenodd;fill-opacity:0.149;" d="M20.75,59.45c-0.067-0.2-0.15-0.4-0.25-0.6
							c-0.2-0.4-0.433-0.817-0.7-1.25c-0.3-0.567-0.45-1.333-0.45-2.3c0-1.533,0.267-2.833,0.8-3.9c0.6-1.2,1.367-1.8,2.3-1.8
							c0.233,0,0.85,0,1.85,0c0.567,0.2,1.117,0.533,1.65,1c0.7,0.6,1.233,1.25,1.6,1.95c-0.633-0.367-1.117-0.633-1.45-0.8
							c-0.533-0.233-0.983-0.35-1.35-0.35c-2.767,0-4.15,1.867-4.15,5.6c0,0.867,0.017,1.383,0.05,1.55
							c0.033,0.034,0.067,0.133,0.1,0.3c0.067,0.167,0.167,0.45,0.3,0.85C20.983,59.6,20.883,59.517,20.75,59.45z M22.75,79.75
							c-3.9-1.033-7.683-3.6-11.35-7.7c-0.9-0.667-1.316-2.316-1.25-4.95c0.033-0.067,0.067-0.133,0.1-0.2
							c0.1-0.233,0.2-0.45,0.3-0.65c0.267-0.5,0.55-0.933,0.85-1.3c-0.566,3.1,0.517,5.833,3.25,8.2
							c4.633,4.899,8.383,6.149,11.25,3.75c0.033,0.066,0.067,0.133,0.1,0.199C24.667,77.733,23.583,78.616,22.75,79.75z
							 M40.55,114.9c-6.5,0.199-11.283-2.884-14.35-9.25c-2.333-6.634-2.867-12.233-1.6-16.801c0.433,10.601,3.8,17.117,10.1,19.551
							c6.066,2.733,11.183,0.666,15.35-6.2c-0.4,2.8-1.383,5.316-2.95,7.55c-0.233,0.333-0.483,0.65-0.75,0.95
							c-1.1,1.366-2.333,2.416-3.7,3.149l-0.1,0.101h-0.1C41.85,114.35,41.217,114.667,40.55,114.9z M49,86.9
							c-0.033-0.134-0.067-0.267-0.1-0.4c-0.2-0.634-0.3-1.184-0.3-1.65c0-1.533,0.267-3,0.8-4.399c0.333-0.9,0.733-1.584,1.2-2.05
							c0.8-0.534,1.683-0.617,2.65-0.25c1.5,0.533,2.3,1.5,2.4,2.899c-0.101-0.2-0.267-0.383-0.5-0.55
							c-0.567-0.434-1.184-0.65-1.851-0.65c-1.366,0-2.4,0.584-3.1,1.75c-0.534,0.9-0.8,1.934-0.8,3.101
							c0,0.467,0.117,1.633,0.35,3.5c-0.033,0.033-0.067,0.05-0.1,0.05c-0.1-0.167-0.183-0.333-0.25-0.5
							C49.267,87.45,49.133,87.167,49,86.9z"/>
						<path style="fill-rule:evenodd;clip-rule:evenodd;fill-opacity:0.251;" d="M24.3,49.6c-1,0-1.617,0-1.85,0
							c-0.934,0-1.7,0.6-2.3,1.8c-0.533,1.067-0.8,2.367-0.8,3.9c0,0.967,0.15,1.733,0.45,2.3c0.267,0.433,0.5,0.85,0.7,1.25
							c0.1,0.2,0.183,0.4,0.25,0.6c-0.567-0.333-1.233-0.567-2-0.7c-0.633-2.967-0.6-5.3,0.1-7c0.033-0.033,0.05-0.067,0.05-0.1
							c0.1-0.133,0.184-0.283,0.25-0.45c1.4-1.7,3.083-2.25,5.05-1.65C24.233,49.55,24.267,49.567,24.3,49.6z M22.75,79.75
							c-0.233,0.333-0.467,0.7-0.7,1.1c-0.233-0.066-0.733-0.25-1.5-0.55c-1.2-0.467-3.133-1.767-5.8-3.899
							c-2.633-2.233-4.117-3.833-4.45-4.8c-0.3-1.033-0.45-1.967-0.45-2.8c0-0.566,0.1-1.133,0.3-1.7
							c-0.066,2.633,0.35,4.283,1.25,4.95C15.067,76.15,18.85,78.717,22.75,79.75z M24.6,88.85
							c-1.267,4.567-0.733,10.167,1.6,16.801c3.066,6.366,7.85,9.449,14.35,9.25c-1.1,0.399-2.3,0.6-3.6,0.6c-0.1,0-0.2,0-0.3,0
							c-3.667-0.066-6.883-1.833-9.65-5.3c-2.733-3.4-4.3-7.45-4.7-12.15c0-0.066-0.017-0.149-0.05-0.25v-0.1c0-0.101,0-0.2,0-0.3
							c-0.1-1.834-0.033-3.584,0.2-5.25c0.5-2.801,1.533-5.317,3.1-7.551c1.233-1.899,2.667-3.283,4.3-4.149
							c0.5-0.267,0.983-0.483,1.45-0.65C27.867,82.1,25.633,85.116,24.6,88.85z M49,86.9c-0.5-1.034-1.083-2.034-1.75-3V83.85
							c0.1-0.199,0.2-0.449,0.3-0.75l0.6-1.3c0.333-0.666,0.733-1.35,1.2-2.05c0.433-0.6,0.85-1.05,1.25-1.35
							c-0.467,0.466-0.867,1.149-1.2,2.05c-0.533,1.399-0.8,2.866-0.8,4.399c0,0.467,0.1,1.017,0.3,1.65
							C48.933,86.634,48.967,86.767,49,86.9z"/>
					</g>
				</g>
				<g>
					<path style="fill-rule:evenodd;clip-rule:evenodd;fill-opacity:0.3059;" d="M30.7,82.75c0.133,0.033,0.25,0.017,0.35-0.05
						c1.367-0.8,2.867-1.233,4.5-1.3c0,0.066,0,0.116,0,0.149c0,0.134,0.167,0.233,0.5,0.3c0.3,0,0,0.084-0.9,0.25
						c-0.9,0.134-1.9,0.4-3,0.801c-1.133,0.333-1.733,0.483-1.8,0.449c-0.1-0.066-0.184-0.149-0.25-0.25
						c-0.067-0.1-0.083-0.183-0.05-0.25c0.034-0.1,0.1-0.183,0.2-0.25c0.1-0.066,0.167-0.116,0.2-0.149
						c0.033,0.033,0.05,0.066,0.05,0.1C30.6,82.65,30.667,82.717,30.7,82.75z M39.9,82.75c0.133,0.066,0.233,0.116,0.3,0.15
						c1.066,0.533,2.066,1.267,3,2.199c-0.767-0.633-1.55-1.116-2.35-1.449c-0.9-0.434-1.517-0.75-1.85-0.95
						c-0.3-0.3-0.35-0.434-0.15-0.4c0.167,0,0.383,0.066,0.65,0.2C39.733,82.634,39.867,82.717,39.9,82.75z M26.5,86.25
						c0.133-0.033,0.217,0,0.25,0.1c-0.767,1.2-1.383,2.5-1.85,3.9c-0.033,0.1-0.017,0.217,0.05,0.35L25,90.65
						c0.033,0.033,0.083,0.083,0.15,0.149c0,0.101-0.033,0.2-0.1,0.3c-0.033,0.101-0.083,0.167-0.15,0.2
						c-0.1,0.066-0.2,0.084-0.3,0.05c-0.1-0.066-0.2-0.116-0.3-0.149c-0.033-0.134-0.05-0.25-0.05-0.351
						c0.467-1.6,1.133-3.066,2-4.399C26.317,86.35,26.4,86.283,26.5,86.25z M24.25,97.4c0.033,0.899,0.133,1.783,0.3,2.649
						c0.034,0.134,0.1,0.233,0.2,0.3c0.067,0,0.15,0,0.25,0c0,0.101,0,0.184,0,0.25c0.033,0.134,0.017,0.25-0.05,0.351
						c-0.067,0.1-0.15,0.166-0.25,0.2c-0.133,0-0.25-0.017-0.35-0.051c-0.067-0.1-0.117-0.199-0.15-0.3
						c-0.167-0.899-0.267-1.8-0.3-2.7c-0.066-0.8-0.083-1.583-0.05-2.35c0-0.134,0.033-0.217,0.1-0.25c0.1-0.1,0.183-0.15,0.25-0.15
						C24.167,96.017,24.183,96.7,24.25,97.4z M44,85.7c0.133,0,0.25-0.017,0.35-0.05V85.6c0.066,0.067,0.1,0.15,0.1,0.25
						c0,0.101-0.034,0.184-0.1,0.25c-0.067-0.1-0.2-0.233-0.4-0.399H44z M46.25,89.05c0.1,0.3,0.183,0.45,0.25,0.45
						c0.7,1.333,1.25,2.767,1.65,4.3c0,0.066,0.05,0.15,0.15,0.25c0.1,0,0.184,0,0.25,0c0.034,0.066,0.05,0.15,0.05,0.25
						c0.066,0.066,0.066,0.167,0,0.3c-0.067,0.067-0.1,0.15-0.1,0.25c-0.1-0.267-0.267-0.666-0.5-1.199c-0.5-1-0.967-2-1.4-3
						C46.2,89.684,46,89.1,46,88.9C46.033,88.7,46.117,88.75,46.25,89.05z M46.55,109.15c0.067-0.134-0.017-0.334-0.25-0.601
						c-0.267-0.3-0.066-0.583,0.6-0.85c0.667-0.267,0.833-0.101,0.5,0.5c-0.333,0.6-0.767,1.283-1.3,2.05
						c-0.533,0.733-1.167,1.417-1.9,2.05c-0.233,0.167-0.45,0.351-0.65,0.55c-0.066,0.101-0.183,0.134-0.35,0.101
						c-0.1-0.033-0.184-0.084-0.25-0.15c-0.067-0.1-0.083-0.2-0.05-0.3c0-0.134,0.05-0.217,0.15-0.25c0.1-0.1,0.2-0.2,0.3-0.3
						c0.1,0.066,0.167,0.1,0.2,0.1c0.133,0.033,0.233,0,0.3-0.1C44.85,111.217,45.75,110.283,46.55,109.15z M48.9,97.75
						c0.2-0.167,0.317-0.017,0.35,0.45c0.067,0.467,0,1.116-0.2,1.95c-0.167,0.767-0.433,1.866-0.8,3.3
						c-0.033,0.133-0.017,0.25,0.05,0.35c0.034,0.033,0.067,0.084,0.1,0.15c0.067,0,0.117,0.017,0.15,0.05c0.034,0,0.067,0,0.1,0
						l-0.05,0.15c0,0.1-0.067,0.233-0.2,0.399c-0.1,0.167-0.217,0.367-0.35,0.601c-0.2,0.233-0.3,0.133-0.3-0.301
						c0.033-0.5,0.067-0.783,0.1-0.85c0.333-1.5,0.533-2.866,0.6-4.1C48.517,98.667,48.667,97.95,48.9,97.75z M30.7,111.35
						c0,0.067-0.083,0.101-0.25,0.101c-0.1,0-0.2-0.017-0.3-0.05c-0.533-0.567-0.95-1-1.25-1.301c-0.267-0.333-0.683-0.85-1.25-1.55
						c-0.533-0.767-1.033-1.633-1.5-2.6c-0.433-0.934-0.633-1.467-0.6-1.601c0.034-0.133,0.1-0.233,0.2-0.3
						c0.033-0.033,0.067-0.05,0.1-0.05c0.033,0.033,0.05,0.066,0.05,0.1c0.767,1.733,1.75,3.317,2.95,4.75c0,0.034,0,0.084,0,0.15
						c0.533,0.667,1.066,1.283,1.6,1.85c0.1,0.034,0.183,0.051,0.25,0.051c0.033,0,0.066,0,0.1,0c0,0.033,0,0.066,0,0.1
						C30.833,111.134,30.8,111.25,30.7,111.35z M37.9,113.75c0.267,0,0.517,0,0.75,0v0.05c-0.1,0.101-0.2,0.15-0.3,0.15
						c-0.467,0.066-0.917,0.1-1.35,0.1c-1.233,0-2.417-0.217-3.55-0.649c-0.133-0.034-0.217-0.084-0.25-0.15
						c-0.067-0.1-0.083-0.217-0.05-0.35c0.067-0.101,0.133-0.184,0.2-0.25c0.1-0.067,0.2-0.067,0.3,0
						c0.133,0.033,0.267,0.083,0.4,0.149c0,0.066,0.017,0.134,0.05,0.2s0.117,0.134,0.25,0.2
						C35.483,113.566,36.667,113.75,37.9,113.75z"/>
					<g>
						<path style="fill-rule:evenodd;clip-rule:evenodd;fill:#D7C4AF;" d="M35.55,81.75c-0.033,0.033-0.117,0.05-0.25,0.05h-0.05
							c-1.6,0.033-3.083,0.45-4.45,1.25c-0.066,0.066-0.167,0.084-0.3,0.05c-0.067-0.033-0.15-0.1-0.25-0.199L30.2,82.85
							c0-0.1,0-0.166,0-0.199c0.033-0.134,0.1-0.217,0.2-0.25c0.233-0.167,0.5-0.317,0.8-0.45c0.033,0,0.05,0.017,0.05,0.05
							c0.067,0.033,0.217,0.05,0.45,0.05c0.367,0,0.983-0.066,1.85-0.2c0.9-0.166,1.434-0.25,1.6-0.25L35.55,81.75z M42.8,84.7
							c-0.8-0.733-1.667-1.334-2.6-1.8c-0.067-0.034-0.167-0.084-0.3-0.15c-0.033-0.033-0.066-0.05-0.1-0.05
							c0-0.066-0.017-0.117-0.05-0.15c-0.033-0.1-0.017-0.217,0.05-0.35c0.034-0.101,0.083-0.167,0.15-0.2
							c0.133-0.033,0.25-0.033,0.35,0c0.034,0.033,0.083,0.066,0.15,0.1c-0.067,0.067-0.1,0.167-0.1,0.301
							c0,0.267,0.533,0.783,1.6,1.55C42.15,84.05,42.433,84.3,42.8,84.7z M25.15,90.8c-0.066,0-0.133,0-0.2,0H24.9
							c-0.066-0.066-0.117-0.116-0.15-0.149L24.7,90.6c-0.067-0.133-0.083-0.25-0.05-0.35c0.434-1.4,1.05-2.7,1.85-3.9
							c0.133-0.166,0.25-0.333,0.35-0.5c0.066-0.1,0.133-0.166,0.2-0.199c0.133,0,0.233,0.033,0.3,0.1
							c0.066,0.033,0.117,0.066,0.15,0.1c-0.333,0.067-0.633,0.301-0.9,0.7c-0.2,0.267-0.5,0.767-0.9,1.5
							c-0.434,0.601-0.65,1.351-0.65,2.25C25.05,90.533,25.083,90.7,25.15,90.8z M24.85,100.45c-0.067,0.033-0.117,0.066-0.15,0.1
							c-0.034,0-0.067,0-0.1,0c-0.1,0-0.167-0.017-0.2-0.05h-0.05c-0.067-0.1-0.117-0.184-0.15-0.25c-0.167-0.9-0.267-1.8-0.3-2.7
							c-0.066-0.7-0.083-1.383-0.05-2.05c0-0.1,0-0.2,0-0.3c0-0.167,0.033-0.267,0.1-0.3c0.1-0.067,0.2-0.101,0.3-0.101
							c0.133,0,0.217,0.033,0.25,0.101h0.05c-0.3,0.133-0.5,0.466-0.6,1c0,0.033,0,0.483,0,1.35c0,0.566,0.1,1.233,0.3,2
							C24.417,99.816,24.617,100.217,24.85,100.45z M47.1,88.95h-0.2l-0.1,0.3c0,0.1,0.333,0.983,1,2.65
							c0.1,0.267,0.217,0.699,0.35,1.3c0.1,0.366,0.317,0.633,0.65,0.8c-0.033,0.033-0.1,0.05-0.2,0.05h-0.05
							c-0.066,0-0.15,0-0.25,0c-0.1-0.1-0.15-0.184-0.15-0.25c-0.4-1.533-0.95-2.967-1.65-4.3c0-0.033-0.017-0.066-0.05-0.1
							c-0.067-0.101-0.083-0.2-0.05-0.301c0.067-0.1,0.133-0.183,0.2-0.25c0.133-0.066,0.25-0.066,0.35,0
							C47.017,88.85,47.067,88.884,47.1,88.95z M49.2,98.55c-0.133,0.134-0.217,0.45-0.25,0.95c0,0.366,0.017,0.783,0.05,1.25
							c0,0.033-0.083,0.417-0.25,1.15c-0.167,0.666-0.25,1.1-0.25,1.3s0.067,0.434,0.2,0.7c0,0.033,0.017,0.066,0.05,0.1
							c-0.033,0-0.067,0-0.1,0s-0.066,0-0.1,0c-0.033-0.033-0.083-0.05-0.15-0.05c-0.033-0.066-0.066-0.117-0.1-0.15
							c-0.066-0.1-0.083-0.217-0.05-0.35c0.367-1.434,0.533-2.95,0.5-4.55c0-0.034,0-0.067,0-0.101s0-0.066,0-0.1
							c0-0.101,0.05-0.184,0.15-0.25c0.067-0.066,0.15-0.101,0.25-0.101s0.2,0.034,0.3,0.101v0.05
							C49.383,98.5,49.3,98.517,49.2,98.55z M46.6,109.05c0,0.033-0.017,0.066-0.05,0.101c-0.8,1.133-1.7,2.066-2.7,2.8
							c-0.067,0.1-0.167,0.133-0.3,0.1c-0.033,0-0.1-0.033-0.2-0.1l-0.05-0.05c-0.066-0.101-0.1-0.2-0.1-0.301
							c0.033-0.133,0.1-0.216,0.2-0.25c0.1-0.1,0.184-0.183,0.25-0.25l0.15,0.101C44.367,111.2,45.3,110.483,46.6,109.05z
							 M30.4,110.75c-0.033,0.033-0.1,0.066-0.2,0.1h-0.05c-0.133,0-0.233-0.033-0.3-0.1c-0.533-0.5-1.017-1.033-1.45-1.6
							c-0.033,0-0.05-0.017-0.05-0.051c-1.067-1.3-1.934-2.683-2.6-4.149l-0.05-0.05c0-0.067,0-0.134,0-0.2
							c0.066-0.101,0.15-0.184,0.25-0.25c0.1-0.066,0.183-0.066,0.25,0c0.1,0.166,0.183,0.333,0.25,0.5l-0.1,0.2
							c0,0.466,0.6,1.517,1.8,3.149C29.117,109.6,29.867,110.417,30.4,110.75z M39,113.7c0.2-0.033,0.35-0.084,0.45-0.15
							c0,0.101-0.034,0.184-0.1,0.25c-0.067,0.101-0.167,0.15-0.3,0.15c-0.167,0.033-0.35,0.066-0.55,0.1c-0.267,0-0.517,0-0.75,0
							c-1.267,0-2.467-0.2-3.6-0.6c-0.1-0.033-0.183-0.101-0.25-0.2c-0.033-0.033-0.05-0.083-0.05-0.15c0-0.033,0-0.083,0-0.149
							c0.033-0.066,0.066-0.117,0.1-0.15c0.333,0.3,0.716,0.5,1.15,0.601c0.066,0.033,0.4,0.116,1,0.25
							c0.4,0.033,0.917,0.066,1.55,0.1h0.75C38.667,113.75,38.867,113.733,39,113.7z"/>
						<path style="fill-rule:evenodd;clip-rule:evenodd;fill:#FFE5C9;" d="M32.4,81.5c1.3-0.267,1.967-0.4,2-0.4
							c0.767,0,1.217,0.067,1.35,0.2v0.05c0,0.134-0.05,0.233-0.15,0.301c0,0.033-0.017,0.066-0.05,0.1l-0.4-0.15
							c-0.167,0-0.7,0.084-1.6,0.25c-0.867,0.134-1.483,0.2-1.85,0.2c-0.233,0-0.383-0.017-0.45-0.05c0-0.033-0.017-0.05-0.05-0.05
							c0.267-0.134,0.533-0.25,0.8-0.351C32.133,81.566,32.267,81.533,32.4,81.5z M43.55,85.45c-0.033-0.134-0.117-0.233-0.25-0.3
							c-0.167-0.167-0.333-0.317-0.5-0.45c-0.367-0.4-0.65-0.65-0.85-0.75c-1.067-0.767-1.6-1.283-1.6-1.55
							c0-0.134,0.033-0.233,0.1-0.301c0.733,0.367,1.433,0.801,2.1,1.301c0.367,0.3,0.717,0.616,1.05,0.949
							c0.233,0.233,0.35,0.45,0.35,0.65c0,0.167,0,0.267,0,0.3C43.883,85.366,43.75,85.417,43.55,85.45z M27.5,85.85
							c0.067,0.034,0.1,0.084,0.1,0.15s-0.017,0.15-0.05,0.25c-0.033,0-0.05,0.017-0.05,0.05c-0.5,0.334-0.95,0.934-1.35,1.8
							c-0.167,0.5-0.316,1.051-0.45,1.65c-0.1,0.233-0.2,0.483-0.3,0.75v0.05c-0.033,0.066-0.1,0.134-0.2,0.2l-0.05,0.05
							c-0.066-0.1-0.1-0.267-0.1-0.5c0-0.899,0.217-1.649,0.65-2.25c0.4-0.733,0.7-1.233,0.9-1.5
							C26.867,86.15,27.167,85.917,27.5,85.85z M24.55,94.9c0.067,0.1,0.1,0.199,0.1,0.3c0,0.133,0,0.267,0,0.399
							c-0.133,0.301-0.2,0.667-0.2,1.101c0,0.2,0.1,0.75,0.3,1.649c0,0.034,0,0.067,0,0.101v0.05c0,0.033,0,0.066,0,0.1
							c0.067,0.467,0.15,0.934,0.25,1.4v0.05c0.033,0.134,0.017,0.233-0.05,0.3c-0.034,0.034-0.067,0.067-0.1,0.101
							c-0.233-0.233-0.434-0.634-0.6-1.2c-0.2-0.767-0.3-1.434-0.3-2c0-0.866,0-1.316,0-1.35C24.05,95.366,24.25,95.033,24.55,94.9z
							 M48.8,94c-0.333-0.167-0.55-0.434-0.65-0.8c-0.133-0.601-0.25-1.033-0.35-1.3c-0.667-1.667-1-2.551-1-2.65l0.1-0.3h0.2
							c0.066,0,0.1,0.033,0.1,0.1c0.033,0.101,0.066,0.184,0.1,0.25c0.067,0.101,0.117,0.217,0.15,0.351
							c0.6,1.233,1.083,2.55,1.45,3.949c0.033,0.067,0.033,0.134,0,0.2V93.9L48.8,94z M48.75,104c-0.033-0.033-0.05-0.066-0.05-0.1
							c-0.133-0.267-0.2-0.5-0.2-0.7s0.083-0.634,0.25-1.3c0.167-0.733,0.25-1.117,0.25-1.15c-0.033-0.467-0.05-0.884-0.05-1.25
							c0.033-0.5,0.117-0.816,0.25-0.95c0.133,0.3,0.2,0.601,0.2,0.9c0,0.333-0.033,0.633-0.1,0.899c-0.066,0.367-0.1,0.75-0.1,1.15
							c0,0.9-0.034,1.55-0.1,1.95c-0.033,0.066-0.05,0.149-0.05,0.25c0,0.033-0.017,0.066-0.05,0.1s-0.067,0.084-0.1,0.15
							C48.867,103.95,48.817,103.967,48.75,104z M44.6,110.25c0.367-0.333,0.783-0.733,1.25-1.2L46.9,108
							c0.133,0,0.217,0.033,0.25,0.1c0,0.134-0.033,0.233-0.1,0.301c-0.1,0.1-0.183,0.233-0.25,0.399c-0.033,0-0.066,0.017-0.1,0.05
							c-0.034,0.067-0.067,0.134-0.1,0.2c-1.3,1.434-2.233,2.15-2.8,2.15l-0.15-0.101c0.167-0.133,0.317-0.267,0.45-0.399
							C44.267,110.566,44.433,110.417,44.6,110.25z M30.4,110.75c-0.533-0.333-1.283-1.15-2.25-2.45c-1.2-1.633-1.8-2.684-1.8-3.149
							l0.1-0.2c0.5,1.066,1.083,2.033,1.75,2.899c0.433,0.467,1.05,1.117,1.85,1.95l0.35,0.351c0.033,0.033,0.067,0.066,0.1,0.1
							s0.05,0.1,0.05,0.2c0,0.066-0.05,0.149-0.15,0.25V110.75z M39,113.7c-0.133,0.033-0.333,0.05-0.6,0.05h-0.75
							c-0.633-0.033-1.15-0.066-1.55-0.1c-0.6-0.134-0.934-0.217-1-0.25c-0.434-0.101-0.817-0.301-1.15-0.601
							c0.033-0.033,0.083-0.05,0.15-0.05v-0.05c0.033-0.033,0.066-0.05,0.1-0.05c0.7,0.3,1.533,0.5,2.5,0.6
							c1.133,0.033,1.917,0.083,2.35,0.15L39,113.7z"/>
						<path style="fill-rule:evenodd;clip-rule:evenodd;fill:#FDEDDB;" d="M35.75,81.3c-0.133-0.133-0.583-0.2-1.35-0.2
							c-0.033,0-0.7,0.134-2,0.4c0.9-0.333,1.85-0.5,2.85-0.5c0.167,0,0.283,0.017,0.35,0.05C35.7,81.116,35.75,81.2,35.75,81.3z
							 M25.7,89.75c0.133-0.6,0.283-1.15,0.45-1.65c0.4-0.866,0.85-1.466,1.35-1.8c0-0.033,0.017-0.05,0.05-0.05
							c0,0.033-0.017,0.066-0.05,0.1C26.767,87.384,26.167,88.517,25.7,89.75z M24.65,95.6c-0.033,0.634-0.017,1.267,0.05,1.9
							c0.033,0.3,0.05,0.583,0.05,0.85c-0.2-0.899-0.3-1.449-0.3-1.649C24.45,96.267,24.517,95.9,24.65,95.6z M43.6,84.35
							c0.267,0.233,0.517,0.45,0.75,0.65c0.066,0.1,0.1,0.217,0.1,0.35c0,0.101-0.034,0.184-0.1,0.25v0.051
							c-0.1,0.033-0.217,0.05-0.35,0.05s-0.233-0.033-0.3-0.101c-0.034-0.033-0.083-0.083-0.15-0.149
							c0.2-0.033,0.333-0.084,0.4-0.15c0-0.033,0-0.133,0-0.3C43.95,84.8,43.833,84.583,43.6,84.35z M49.1,103.45
							c0.066-0.4,0.1-1.05,0.1-1.95c0-0.4,0.033-0.783,0.1-1.15c0.067-0.267,0.1-0.566,0.1-0.899c0-0.3-0.066-0.601-0.2-0.9
							c0.1-0.033,0.183-0.05,0.25-0.05c0.066,0.033,0.1,0.1,0.1,0.2C49.583,100.366,49.433,101.95,49.1,103.45z M47.15,108.1
							c-0.033-0.066-0.117-0.1-0.25-0.1l-1.05,1.05c-0.467,0.467-0.883,0.867-1.25,1.2c0.467-0.467,0.883-1,1.25-1.6
							c0.066-0.034,0.117-0.067,0.15-0.101c0.133-0.2,0.25-0.399,0.35-0.6c0.066-0.134,0.15-0.217,0.25-0.25
							c0.133,0,0.233,0.033,0.3,0.1c0.133,0.066,0.217,0.15,0.25,0.25V108.1z M26.2,104.45c0.133,0.033,0.216,0.1,0.25,0.2
							c0.667,1.433,1.5,2.733,2.5,3.899c0.033,0,0.05,0.017,0.05,0.05c0.367,0.434,0.717,0.834,1.05,1.2
							c-0.8-0.833-1.417-1.483-1.85-1.95c-0.667-0.866-1.25-1.833-1.75-2.899C26.383,104.783,26.3,104.616,26.2,104.45z
							 M34.2,112.65c0.066,0,0.133,0.017,0.2,0.05c1.1,0.366,2.217,0.55,3.35,0.55c0.4,0,0.8-0.033,1.2-0.1
							c0.133-0.034,0.233,0,0.3,0.1c0.1,0.066,0.167,0.15,0.2,0.25v0.05c-0.1,0.066-0.25,0.117-0.45,0.15l0.05-0.3
							c-0.433-0.067-1.216-0.117-2.35-0.15C35.733,113.15,34.9,112.95,34.2,112.65z"/>
					</g>
				</g>
			</g>
			<g>
				<path style="fill-rule:evenodd;clip-rule:evenodd;fill:#D6E48E;" d="M70.9,126.05c-0.301,0.134-0.917,0.233-1.851,0.3l0.45-0.1
					c0.267-0.033-0.634-0.55-2.7-1.55c-0.2-0.167-0.399-0.283-0.6-0.351c-1.667-0.8-2.917-1.35-3.75-1.649
					c-0.601-0.2-2.184-0.867-4.75-2c-2.5-1.101-3.934-1.733-4.3-1.9l-3.5-1.149c0.133,0,0.467,0,1,0c0.567-0.067,1.383,0.1,2.45,0.5
					c1.101,0.399,1.9,0.716,2.4,0.949c0.533,0.267,2.517,1.15,5.95,2.65c0.833,0.434,1.783,0.866,2.85,1.3
					C67.316,124.384,69.434,125.384,70.9,126.05z M73.4,127.65V127.6c0.1,0.2,0.166,0.351,0.199,0.45
					c0.034,0.134,0.067,0.283,0.101,0.45l-1.75,0.55c-1.267,0.3-3.25,0.5-5.95,0.601c-1.1,0.066-2.066,0.133-2.9,0.199L51.45,130.8
					c-1.067,0.134-2.217,0.267-3.45,0.4l-3.7,0.35h-0.1l-1.25,0.05c-0.067,0-0.133,0-0.2,0c-0.167,0-0.333,0.017-0.5,0.051
					c-0.3,0.333-0.5,1.267-0.6,2.8c-0.1,0.866-0.183,2.066-0.25,3.6l-0.15,0.05l-0.1-1.649c0-0.233,0.033-0.634,0.1-1.2
					c0.1-0.566,0.15-1.267,0.15-2.1c0-0.867-0.233-1.317-0.7-1.351c-0.467-0.1-0.967-0.2-1.5-0.3l-0.05-0.2
					c0.7,0.2,1.667,0.3,2.9,0.3c2.067-0.333,3.867-0.616,5.4-0.85c3.4-0.533,5.783-0.816,7.149-0.85c1.067-0.034,2.983-0.2,5.75-0.5
					c2.634-0.267,4.45-0.4,5.45-0.4c2.566,0,4.101-0.017,4.601-0.05c1.666-0.134,2.633-0.483,2.899-1.05L73.4,127.65z"/>
				
					<radialGradient id="SVGID_34_" cx="-48.1499" cy="-123.1499" r="25.4375" gradientTransform="matrix(-1 0 0 0.6113 0 198.4317)" gradientUnits="userSpaceOnUse">
					<stop  offset="0" style="stop-color:#B2C259"/>
					<stop  offset="0.9843" style="stop-color:#5D6E2C"/>
				</radialGradient>
				<path style="fill-rule:evenodd;clip-rule:evenodd;fill:url(#SVGID_34_);" d="M66.2,124.35c0.2,0.2,0.483,0.483,0.85,0.851
					c0.434,0.5,0.65,0.883,0.65,1.149c0,0.434-0.767,0.851-2.3,1.25c-1.5,0.334-3.117,0.5-4.851,0.5
					c-1.633-0.033-4.033,0.117-7.2,0.45c-3.366,0.3-5.683,0.45-6.95,0.45c-2.233,0-4.117-0.184-5.65-0.55
					c-1.533-0.367-2.3-0.834-2.3-1.4c0-0.066-0.2-0.116-0.6-0.149c-0.4-0.101-0.883-0.233-1.45-0.4
					c-0.533-0.167-2.483-0.917-5.85-2.25c-3.4-1.3-3.8-2.333-1.2-3.1V121c0.1-0.1,0.267-0.15,0.5-0.15v-0.05
					c0.066-0.166,0.083-0.283,0.05-0.35c-0.033-0.033-0.05-0.066-0.05-0.101c0-0.833,2.183-1.383,6.55-1.649
					c3.067-0.233,5.6-0.517,7.6-0.851c2.767-0.1,4.733-0.166,5.9-0.199l3.5,1.149c0.366,0.167,1.8,0.8,4.3,1.9
					c2.566,1.133,4.149,1.8,4.75,2C63.283,123,64.533,123.55,66.2,124.35z"/>
				<path style="fill-rule:evenodd;clip-rule:evenodd;fill:#76871E;" d="M73.85,133.55v1.9l-0.8,0.2
					c-0.2,0.133-0.566,0.199-1.1,0.199c-0.5,0.067-0.867,0.15-1.101,0.25c-0.433,0.067-1.133,0.101-2.1,0.101l-9.7,1.149
					c-0.1,0-0.184,0-0.25,0h-0.1c-0.066,0-0.117,0-0.15,0c-1.033,0-1.8,0.034-2.3,0.101c-1.167,0.1-2.917,0.316-5.25,0.649
					c-1.4,0.101-4.033,0.15-7.9,0.15l-0.35,1.45l-0.5,0.05L42,139.8c-0.067,0-0.133,0-0.2,0c-0.033-1.5,0.083-3.05,0.35-4.649
					c0.333-2.167,0.533-3.351,0.6-3.551c0.067,0,0.133,0,0.2,0l1.25-0.05l-0.5,0.25c0.233-0.1,0.55-0.166,0.95-0.2h4.65
					c0.633,0,2.05-0.1,4.25-0.3c2.533-0.2,4.05-0.316,4.55-0.35h1.95c0.667,0,1.316-0.117,1.95-0.351
					c0.533-0.166,1.5-0.399,2.9-0.699l1.1-0.25c2.7-0.101,4.684-0.301,5.95-0.601l1.75-0.55l0.1,3.05c-0.866,0.2-1.934,0.3-3.2,0.3
					c-0.699,0-1.75-0.017-3.149-0.05c0.133,0.033,0.233,0.101,0.3,0.2c0.134,0.134,0.167,0.316,0.1,0.55
					c-0.699,0.066-1.767,0.066-3.199,0c-1.733,0.066-3.784,0.3-6.15,0.7c-1.4,0.2-3.467,0.533-6.2,1c0.367-0.2,1.033-0.467,2-0.8
					c0.834-0.3,1.483-0.55,1.95-0.75l0.9-0.55c-2.534,0.399-4.2,0.55-5,0.449c0.267-0.066,0.583-0.133,0.949-0.199
					c0.5-0.067,0.834-0.134,1-0.2c0.9-0.434,1.584-0.717,2.051-0.851c-1.233,0.167-3.051,0.267-5.45,0.301
					c-2.267,0.133-3.767,0.267-4.5,0.399c-0.2,0.3-0.35,0.65-0.45,1.05c-0.033,0.233-0.033,0.367,0,0.4
					c0,0.066,0.033,0.184,0.1,0.35c0.133,0.167,0.217,0.317,0.25,0.45c0.033,0.066,0.017,0.233-0.05,0.5
					c-0.1,0.5-0.15,0.783-0.15,0.851c0.067,0.166,0.267,0.316,0.6,0.449l1.9,0.2c0.6,0.101,1.35,0.15,2.25,0.15
					c1.034-0.033,1.784-0.05,2.25-0.05c2,0,3.133,0,3.399,0c1.134-0.101,1.967-0.184,2.5-0.25c0.601-0.134,1.05-0.233,1.351-0.301
					c0.5-0.033,1.1-0.033,1.8,0c0.767,0.034,1.333,0.051,1.7,0.051c1,0,2.149-0.084,3.449-0.25c0.801-0.167,1.4-0.284,1.801-0.351
					c0.5-0.033,0.833-0.083,1-0.149c0.533-0.301,1.066-0.483,1.6-0.551c0.833-0.133,1.566-0.483,2.2-1.05H73.85z"/>
				<path style="fill-rule:evenodd;clip-rule:evenodd;fill:#86972D;" d="M73.8,131.55v0.601c0,0.133,0,0.267,0,0.399l0.05,1H73.7
					c-0.634,0.566-1.367,0.917-2.2,1.05c-0.533,0.067-1.066,0.25-1.6,0.551c-0.167,0.066-0.5,0.116-1,0.149
					c-0.4,0.066-1,0.184-1.801,0.351c-1.3,0.166-2.449,0.25-3.449,0.25c-0.367,0-0.934-0.017-1.7-0.051c-0.7-0.033-1.3-0.033-1.8,0
					c-0.301,0.067-0.75,0.167-1.351,0.301c-0.533,0.066-1.366,0.149-2.5,0.25c-0.267,0-1.399,0-3.399,0
					c-0.467,0-1.217,0.017-2.25,0.05c-0.9,0-1.65-0.05-2.25-0.15l-1.9-0.2c-0.333-0.133-0.533-0.283-0.6-0.449
					c0-0.067,0.05-0.351,0.15-0.851c0.067-0.267,0.083-0.434,0.05-0.5c-0.033-0.133-0.117-0.283-0.25-0.45
					c-0.067-0.166-0.1-0.283-0.1-0.35c-0.033-0.033-0.033-0.167,0-0.4c0.1-0.399,0.25-0.75,0.45-1.05
					c0.733-0.133,2.233-0.267,4.5-0.399c2.399-0.034,4.217-0.134,5.45-0.301c-0.467,0.134-1.15,0.417-2.051,0.851
					c-0.166,0.066-0.5,0.133-1,0.2c-0.366,0.066-0.683,0.133-0.949,0.199c0.8,0.101,2.466-0.05,5-0.449l-0.9,0.55
					c-0.467,0.2-1.116,0.45-1.95,0.75c-0.967,0.333-1.633,0.6-2,0.8c2.733-0.467,4.8-0.8,6.2-1c2.366-0.4,4.417-0.634,6.15-0.7
					c1.433,0.066,2.5,0.066,3.199,0c0.067-0.233,0.034-0.416-0.1-0.55c-0.066-0.1-0.167-0.167-0.3-0.2
					c1.399,0.033,2.45,0.05,3.149,0.05C71.866,131.85,72.934,131.75,73.8,131.55z"/>
				<path style="fill-rule:evenodd;clip-rule:evenodd;fill:#4C5906;" d="M44.2,131.55h0.1l3.7-0.35
					c1.233-0.134,2.383-0.267,3.45-0.4l11.649-0.95c0.834-0.066,1.801-0.133,2.9-0.199l-1.1,0.25c-1.4,0.3-2.367,0.533-2.9,0.699
					c-0.634,0.233-1.283,0.351-1.95,0.351H58.1c-0.5,0.033-2.017,0.149-4.55,0.35c-2.2,0.2-3.617,0.3-4.25,0.3h-4.65
					c-0.4,0.034-0.717,0.101-0.95,0.2L44.2,131.55z M40.75,139.9c-0.167-3.301-0.583-5.884-1.25-7.75l-0.3-0.65
					c0.533,0.1,1.033,0.2,1.5,0.3c0.466,0.033,0.7,0.483,0.7,1.351c0,0.833-0.05,1.533-0.15,2.1c-0.067,0.566-0.1,0.967-0.1,1.2
					l0.1,1.649l0.15-0.05c0.067-1.533,0.15-2.733,0.25-3.6c0.1-1.533,0.3-2.467,0.6-2.8c0.167-0.034,0.333-0.051,0.5-0.051
					c-0.067,0.2-0.267,1.384-0.6,3.551c-0.267,1.6-0.383,3.149-0.35,4.649c-0.267,0.033-0.483,0.05-0.65,0.05
					C40.983,139.884,40.85,139.9,40.75,139.9z M42.75,139.7h0.1c-0.2,0.033-0.4,0.05-0.6,0.05L42.75,139.7z M43.1,139.7l0.1-0.75
					c1.133,0,2.767-0.084,4.9-0.25c2.2-0.2,3.817-0.3,4.85-0.3c1.566,0,3.116-0.051,4.649-0.15c1.801-0.1,4.101-0.566,6.9-1.4
					c0.033,0,0.7-0.1,2-0.3c0.634-0.1,1.15-0.149,1.55-0.149h3.4c0.866,0,1.616-0.084,2.25-0.25h0.1l0.05-0.051l-0.1,0.15v0.15
					c-0.1,0.633-2.1,1.066-6,1.3c-0.9,0.033-4.483,0.3-10.75,0.8c-0.833,0.066-1.65,0.134-2.45,0.2L44,139.55
					C43.667,139.583,43.367,139.634,43.1,139.7z"/>
				<path style="fill-rule:evenodd;clip-rule:evenodd;fill:#657415;" d="M39.15,131.3c-0.133-0.033-0.3-0.066-0.5-0.1H38.6
					c0.063,0.031,0.112,0.064,0.15,0.1c-0.04-0.035-0.106-0.068-0.2-0.1l-0.1-0.05H38.4c-0.3-0.167-0.5-0.267-0.6-0.301l-0.85-0.399
					l0.3,0.2C36.65,130.35,36,130,35.3,129.6c-0.8-0.466-2.816-1.783-6.05-3.949c-3.167-2.067-5.383-3.517-6.65-4.351l-0.25-0.25
					c-0.9-0.7-1.233-1.217-1-1.55c0-0.066,0.033-0.116,0.1-0.15c0.3-0.267,4.966-0.649,14-1.149c3.433-0.134,6.283-0.25,8.55-0.351
					c-2,0.334-4.533,0.617-7.6,0.851c-4.367,0.267-6.55,0.816-6.55,1.649c0,0.034,0.017,0.067,0.05,0.101
					c0.033,0.066,0.017,0.184-0.05,0.35v0.05c-0.233,0-0.4,0.051-0.5,0.15v0.15c-2.6,0.767-2.2,1.8,1.2,3.1
					c3.367,1.333,5.317,2.083,5.85,2.25c0.567,0.167,1.05,0.3,1.45,0.4c0.4,0.033,0.6,0.083,0.6,0.149c0,0.566,0.767,1.033,2.3,1.4
					c1.533,0.366,3.417,0.55,5.65,0.55c1.267,0,3.583-0.15,6.95-0.45c3.167-0.333,5.567-0.483,7.2-0.45
					c1.733,0,3.351-0.166,4.851-0.5c1.533-0.399,2.3-0.816,2.3-1.25c0-0.267-0.217-0.649-0.65-1.149
					c-0.366-0.367-0.649-0.65-0.85-0.851c0.2,0.067,0.399,0.184,0.6,0.351c2.066,1,2.967,1.517,2.7,1.55l-0.45,0.1
					c0.934-0.066,1.55-0.166,1.851-0.3c1.433,0.667,2.199,1.084,2.3,1.25c0.1,0.066,0.166,0.184,0.2,0.351L73.3,127.9
					c-0.267,0.566-1.233,0.916-2.899,1.05c-0.5,0.033-2.034,0.05-4.601,0.05c-1,0-2.816,0.134-5.45,0.4
					c-2.767,0.3-4.683,0.466-5.75,0.5c-1.366,0.033-3.75,0.316-7.149,0.85c-1.534,0.233-3.333,0.517-5.4,0.85
					C40.817,131.6,39.85,131.5,39.15,131.3z M33.75,136.1l-0.6-0.55c-0.333-0.3-0.95-0.767-1.85-1.399L31,133.55
					c0.067,0,0.2,0,0.4,0c0.167,0,0.3-0.017,0.4-0.05c-0.1-0.1-0.233-0.2-0.4-0.3l-1.15-0.65c-0.433-0.2-0.75-0.366-0.95-0.5
					l-0.65-0.55c-0.7-0.634-1.1-0.983-1.2-1.05c-0.1-0.066-0.25-0.267-0.45-0.601c-0.133-0.233-0.233-0.416-0.3-0.55
					c-0.133-0.166-0.417-0.316-0.85-0.45c-0.367-0.166-0.633-0.416-0.8-0.75l-0.2-0.449c-0.133-0.167-0.25-0.284-0.35-0.351
					c-0.1-0.166-0.15-0.3-0.15-0.399c0.033-0.2,0.233-0.534,0.6-1c0.2-0.334,0.533-0.334,1,0c0.533,0.267,0.883,0.333,1.05,0.199
					v-0.149c0.133-0.033,0.333,0,0.6,0.1c0.233,0.134,0.417,0.233,0.55,0.3c1.067,0.567,1.883,0.983,2.45,1.25l5.15,2.551
					c1,0.466,1.8,0.816,2.4,1.05h0.05l0.1,0.05l-0.2,1.05l-0.4,1.05c-0.1,0.5-0.217,0.851-0.35,1.051
					c-0.1,0.3-0.417,0.583-0.95,0.85c-0.033,0-0.117,0.017-0.25,0.05c-0.033,0.101-0.066,0.217-0.1,0.351
					c-0.033,0.199-0.033,0.5,0,0.899c-0.167,0.134-0.433,0.15-0.8,0.05C34.65,136.5,34.15,136.333,33.75,136.1z"/>
				<path style="fill-rule:evenodd;clip-rule:evenodd;fill:#617011;" d="M73.85,135.45v0.649l-0.05,0.051h-0.1
					c-0.634,0.166-1.384,0.25-2.25,0.25h-3.4c-0.399,0-0.916,0.05-1.55,0.149c-1.3,0.2-1.967,0.3-2,0.3
					c-2.8,0.834-5.1,1.301-6.9,1.4c-1.533,0.1-3.083,0.15-4.649,0.15c-1.033,0-2.65,0.1-4.85,0.3c-2.133,0.166-3.767,0.25-4.9,0.25
					l-0.1,0.75h-0.25h-0.1l0.35-1.45c3.867,0,6.5-0.05,7.9-0.15c2.333-0.333,4.083-0.55,5.25-0.649c0.5-0.066,1.267-0.101,2.3-0.101
					c0.033,0,0.084,0,0.15,0h0.1c0.066,0,0.15,0,0.25,0l9.7-1.149c0.967,0,1.667-0.033,2.1-0.101c0.233-0.1,0.601-0.183,1.101-0.25
					c0.533,0,0.899-0.066,1.1-0.199L73.85,135.45z"/>
				<path style="fill-rule:evenodd;clip-rule:evenodd;fill:#525D34;" d="M21.35,119.5c-0.267,0.3-0.434,0.717-0.5,1.25v0.05
					c-0.029,0.029-0.046,0.088-0.05,0.175c0.002-0.157,0.02-0.282,0.05-0.375C20.917,120.134,21.083,119.767,21.35,119.5z"/>
				<path style="fill-rule:evenodd;clip-rule:evenodd;fill:#364100;" d="M31.3,134.15c0.9,0.633,1.517,1.1,1.85,1.399l0.6,0.55
					c0.367,0.267,0.833,0.584,1.4,0.95c0.833,0.533,1.483,0.7,1.95,0.5c0.367-0.133,0.617-0.649,0.75-1.55
					c0.133-1.066,0.283-1.684,0.45-1.85c0.867,1.699,1.483,3.616,1.85,5.75L39.7,140c-0.5,0.033-0.867,0.033-1.1,0h-0.2l-0.1-0.05
					c-0.167-0.033-0.333-0.066-0.5-0.101h-0.1c-0.067-0.033-0.117-0.05-0.15-0.05l-0.1-0.1c-0.067-0.066-0.1-0.117-0.1-0.15H37.3
					c-0.033,0-0.216-0.116-0.55-0.35l-1.7-1.15c-1.333-0.967-3.233-2.316-5.7-4.05c-5.167-3.5-7.85-5.384-8.05-5.65
					c-0.3-0.267-0.466-0.949-0.5-2.05c-0.033-0.7-0.033-1.8,0-3.3c0-0.066,0-0.15,0-0.25c0-0.733,0-1.283,0-1.65v-0.125
					c0.004-0.087,0.021-0.146,0.05-0.175v-0.05c0.066-0.533,0.233-0.95,0.5-1.25c-0.233,0.333,0.1,0.85,1,1.55l0.25,0.25
					c-0.167,0.467-0.25,0.917-0.25,1.351c-0.033,1.1-0.033,2.116,0,3.05c0.066,1.2,0.383,2.116,0.95,2.75
					c0.233,0.267,0.534,0.55,0.9,0.85c0.466,0.3,0.783,0.5,0.95,0.601l3.1,2.1c0.4,0.4,0.733,0.684,1,0.85
					c0.8,0.434,1.383,0.784,1.75,1.051L31.3,134.15z"/>
				<path style="fill-rule:evenodd;clip-rule:evenodd;fill:#536109;" d="M39.2,131.5l0.3,0.65c0.667,1.866,1.083,4.449,1.25,7.75
					c-0.233,0-0.433,0-0.6,0c-0.367-2.134-0.983-4.051-1.85-5.75c-0.167,0.166-0.316,0.783-0.45,1.85
					c-0.133,0.9-0.383,1.417-0.75,1.55c-0.467,0.2-1.117,0.033-1.95-0.5c-0.566-0.366-1.033-0.684-1.4-0.95
					c0.4,0.233,0.9,0.4,1.5,0.5c0.367,0.101,0.633,0.084,0.8-0.05c-0.033-0.399-0.033-0.7,0-0.899c0.034-0.134,0.067-0.25,0.1-0.351
					c0.133-0.033,0.217-0.05,0.25-0.05c0.533-0.267,0.85-0.55,0.95-0.85c0.133-0.2,0.25-0.551,0.35-1.051l0.4-1.05l0.2-1.05
					l-0.1-0.05h-0.05c-0.6-0.233-1.4-0.584-2.4-1.05L30.6,127.6c-0.567-0.267-1.383-0.683-2.45-1.25
					c-0.133-0.066-0.316-0.166-0.55-0.3c-0.267-0.1-0.467-0.133-0.6-0.1v0.149c-0.167,0.134-0.517,0.067-1.05-0.199
					c-0.467-0.334-0.8-0.334-1,0c-0.367,0.466-0.567,0.8-0.6,1c0,0.1,0.05,0.233,0.15,0.399c0.1,0.066,0.217,0.184,0.35,0.351
					l0.2,0.449c0.167,0.334,0.434,0.584,0.8,0.75c0.433,0.134,0.717,0.284,0.85,0.45c0.066,0.134,0.167,0.316,0.3,0.55
					c0.2,0.334,0.35,0.534,0.45,0.601c0.1,0.066,0.5,0.416,1.2,1.05l0.65,0.55c0.2,0.134,0.517,0.3,0.95,0.5l1.15,0.65
					c0.167,0.1,0.3,0.2,0.4,0.3c-0.1,0.033-0.233,0.05-0.4,0.05c-0.2,0-0.333,0-0.4,0l0.3,0.601L31,133.9
					c-0.367-0.267-0.95-0.617-1.75-1.051c-0.267-0.166-0.6-0.449-1-0.85l-3.1-2.1c-0.167-0.101-0.483-0.301-0.95-0.601
					c-0.367-0.3-0.667-0.583-0.9-0.85c-0.566-0.634-0.883-1.55-0.95-2.75c-0.033-0.934-0.033-1.95,0-3.05
					c0-0.434,0.083-0.884,0.25-1.351c1.267,0.834,3.483,2.283,6.65,4.351c3.233,2.166,5.25,3.483,6.05,3.949
					c0.7,0.4,1.35,0.75,1.95,1.051l-0.3-0.2l0.85,0.399c0.1,0.034,0.3,0.134,0.6,0.301h0.05l0.1,0.05
					c0.094,0.031,0.161,0.064,0.2,0.1c-0.038-0.035-0.087-0.068-0.15-0.1h0.05c0.2,0.033,0.367,0.066,0.5,0.1L39.2,131.5z"/>
			</g>
			<g>
				
					<linearGradient id="SVGID_35_" gradientUnits="userSpaceOnUse" x1="116.502" y1="-11.6025" x2="158.0167" y2="-11.6025" gradientTransform="matrix(0.1277 0.9918 -0.9669 0.3212 -1.766235e-004 -3.673434e-004)">
					<stop  offset="0" style="stop-color:#DB3170"/>
					<stop  offset="0.2824" style="stop-color:#F974B2"/>
					<stop  offset="0.5333" style="stop-color:#FFA3D3"/>
					<stop  offset="0.7176" style="stop-color:#FA7FB9"/>
					<stop  offset="0.9882" style="stop-color:#E34483"/>
				</linearGradient>
				<polygon style="fill-rule:evenodd;clip-rule:evenodd;fill:url(#SVGID_35_);" points="17.15,122.3 20.75,121.9 39.25,134.1 
					39,162.15 35.55,162.6 35.65,134.65 38.4,134.1 35.5,134.4 35.45,134.4 				"/>
				
					<linearGradient id="SVGID_36_" gradientUnits="userSpaceOnUse" x1="-35.5806" y1="-143.9976" x2="-17.2576" y2="-143.9976" gradientTransform="matrix(-0.9974 0.0723 0 -1.0026 -2.179742e-004 2.122521e-004)">
					<stop  offset="0" style="stop-color:#B02458"/>
					<stop  offset="0.2824" style="stop-color:#B6316E"/>
					<stop  offset="0.5373" style="stop-color:#C34888"/>
					<stop  offset="0.7098" style="stop-color:#B73070"/>
					<stop  offset="0.9882" style="stop-color:#A60846"/>
				</linearGradient>
				<polygon style="fill-rule:evenodd;clip-rule:evenodd;fill:url(#SVGID_36_);" points="35.3,162.65 33.7,161.4 33.85,135.7 
					22.15,128.15 18.75,126 18.75,151.75 18.65,151.8 17.1,150.35 17.15,122.3 35.45,134.4 				"/>
				<polygon style="fill-rule:evenodd;clip-rule:evenodd;fill:#81043A;" points="22.15,128.15 22.15,151.2 18.75,151.75 18.75,126 
									"/>
				<polygon style="fill-rule:evenodd;clip-rule:evenodd;fill:#FFC4E5;" points="35.55,162.6 35.3,162.65 35.45,134.4 35.5,134.4 
					38.4,134.1 35.65,134.65 				"/>
			</g>
		</g>
	</g>
</g>
<g id="price_x5F_tag_x5F_pt">
	
		<use xlink:href="#price_x5F_tag_x5F_pt_x5F_mc"  width="-32766" height="-32766" id="price_x5F_tag_x5F_pt_1_" x="16383" y="16383" transform="matrix(1 0 0 -1 56.3496 159.6504)" style="overflow:visible;"/>
</g>
</svg>
