<?xml version="1.0" encoding="iso-8859-1"?>
<!-- Generator: Adobe Illustrator 15.1.0, SVG Export Plug-In . SVG Version: 6.00 Build 0)  -->
<!DOCTYPE svg PUBLIC "-//W3C//DTD SVG 1.1//EN" "http://www.w3.org/Graphics/SVG/1.1/DTD/svg11.dtd">
<svg version="1.1" id="FlashAICB" xmlns="http://www.w3.org/2000/svg" xmlns:xlink="http://www.w3.org/1999/xlink" x="0px" y="0px"
	 width="42.95px" height="72px" viewBox="0 0 42.95 72" style="enable-background:new 0 0 42.95 72;" xml:space="preserve">
<g>
	
		<radialGradient id="SVGID_1_" cx="22.75" cy="53.5498" r="7.5875" gradientTransform="matrix(1 0 0 -2.4283 0 183.5867)" gradientUnits="userSpaceOnUse">
		<stop  offset="0" style="stop-color:#000000;stop-opacity:0.7176"/>
		<stop  offset="0.5961" style="stop-color:#171516;stop-opacity:0.2235"/>
		<stop  offset="1" style="stop-color:#221F20;stop-opacity:0"/>
	</radialGradient>
	<path style="fill-rule:evenodd;clip-rule:evenodd;fill:url(#SVGID_1_);" d="M30.35,53.55c0,5.101-0.733,9.45-2.199,13.05
		c-1.5,3.601-3.301,5.4-5.4,5.4c-2.1,0-3.883-1.8-5.35-5.4c-1.5-3.6-2.25-7.949-2.25-13.05c0-5.1,0.75-9.45,2.25-13.05
		c1.467-3.6,3.25-5.4,5.35-5.4c2.1,0,3.9,1.8,5.4,5.4C29.616,44.1,30.35,48.45,30.35,53.55z"/>
	
		<radialGradient id="SVGID_2_" cx="50.1592" cy="11.2051" r="10.411" gradientTransform="matrix(0.5547 0.8321 0.8321 -0.5547 -18.646 12.4306)" gradientUnits="userSpaceOnUse">
		<stop  offset="0" style="stop-color:#FDFDFD"/>
		<stop  offset="0.2627" style="stop-color:#ADADAD"/>
		<stop  offset="1" style="stop-color:#696969"/>
	</radialGradient>
	<path style="fill-rule:evenodd;clip-rule:evenodd;fill:url(#SVGID_2_);" d="M27.35,51.6c0,1.434-0.517,2.65-1.55,3.65
		c-1.033,1.033-2.267,1.55-3.7,1.55c-1.433,0-2.667-0.517-3.7-1.55c-1.033-1-1.55-2.217-1.55-3.65c0-1.433,0.517-2.666,1.55-3.699
		c1.033-1.034,2.267-1.551,3.7-1.551c1.467,0,2.7,0.517,3.7,1.551C26.833,48.934,27.35,50.167,27.35,51.6z"/>
	<path style="fill-rule:evenodd;clip-rule:evenodd;fill:#63625E;" d="M22.1,46.35c0.934,0,1.784,0.233,2.551,0.7v5.25l0.899,0.55
		c0.7,0.167,1.3-0.25,1.8-1.25c0,1.434-0.517,2.65-1.55,3.65c-1.033,1.033-2.267,1.55-3.7,1.55c-1.133,0-2.149-0.333-3.05-1
		c-0.9-0.666-1.533-1.517-1.9-2.55c0.8,0.5,1.533,0.684,2.2,0.55c1.533-0.2,2.3-1.25,2.3-3.149l0.1-4.25L22.1,46.35z"/>
	<g>
		
			<linearGradient id="SVGID_3_" gradientUnits="userSpaceOnUse" x1="19.7188" y1="65.7695" x2="24.5938" y2="65.7695" gradientTransform="matrix(1 -0.0045 0.0045 1 4.705284e-004 -8.894550e-005)">
			<stop  offset="0.0353" style="stop-color:#AAA8A4"/>
			<stop  offset="0.1216" style="stop-color:#B5B2AE"/>
			<stop  offset="0.2471" style="stop-color:#CDC8C3"/>
			<stop  offset="0.302" style="stop-color:#BDB8B3"/>
			<stop  offset="0.4784" style="stop-color:#8F8C87"/>
			<stop  offset="0.6157" style="stop-color:#73706B"/>
			<stop  offset="0.6941" style="stop-color:#686661"/>
			<stop  offset="1" style="stop-color:#837F7A"/>
		</linearGradient>
		<path style="fill-rule:evenodd;clip-rule:evenodd;fill:url(#SVGID_3_);" d="M20,64.3h4.85v1.55
			c0.034,0.301-0.183,0.567-0.649,0.801c-0.467,0.267-1.017,0.399-1.65,0.399c-0.666,0-1.267-0.116-1.8-0.35
			C20.25,66.434,20,66.15,20,65.85V64.3z"/>
		
			<linearGradient id="SVGID_4_" gradientUnits="userSpaceOnUse" x1="19.7354" y1="64.5742" x2="24.585" y2="64.5742" gradientTransform="matrix(1 -0.0045 0.0045 1 4.716869e-004 9.605708e-005)">
			<stop  offset="0.0353" style="stop-color:#A7A6A2"/>
			<stop  offset="0.1451" style="stop-color:#B2B1AB"/>
			<stop  offset="0.3373" style="stop-color:#CFCDC4"/>
			<stop  offset="0.4235" style="stop-color:#DFDBD0"/>
			<stop  offset="1" style="stop-color:#9A948E"/>
		</linearGradient>
		<path style="fill-rule:evenodd;clip-rule:evenodd;fill:url(#SVGID_4_);" d="M24.85,64.45c0,0.333-0.233,0.616-0.699,0.85
			c-0.434,0.233-1,0.367-1.7,0.4c-0.667,0-1.25-0.117-1.75-0.351c-0.467-0.233-0.7-0.517-0.7-0.85s0.233-0.634,0.7-0.9
			c0.5-0.233,1.083-0.35,1.75-0.35c0.666,0,1.233,0.116,1.7,0.35C24.616,63.833,24.85,64.116,24.85,64.45z"/>
		<path style="fill-rule:evenodd;clip-rule:evenodd;fill:#B8B5B0;" d="M24.85,64.3c0,0.3-0.233,0.55-0.699,0.75
			c-0.467,0.2-1.034,0.3-1.7,0.3c-0.667,0-1.25-0.1-1.75-0.3c-0.467-0.2-0.7-0.45-0.7-0.75c0-0.267,0.233-0.517,0.7-0.75
			c0.5-0.2,1.083-0.3,1.75-0.3c0.666,0,1.233,0.1,1.7,0.3C24.616,63.75,24.85,64,24.85,64.3z"/>
	</g>
	<g>
		<linearGradient id="SVGID_5_" gradientUnits="userSpaceOnUse" x1="20.7876" y1="53.0742" x2="23.9126" y2="53.0742">
			<stop  offset="0.0353" style="stop-color:#AAA8A4"/>
			<stop  offset="0.1216" style="stop-color:#B5B2AE"/>
			<stop  offset="0.2471" style="stop-color:#CDC8C3"/>
			<stop  offset="0.302" style="stop-color:#BDB8B3"/>
			<stop  offset="0.4784" style="stop-color:#8F8C87"/>
			<stop  offset="0.6157" style="stop-color:#73706B"/>
			<stop  offset="0.6941" style="stop-color:#686661"/>
			<stop  offset="1" style="stop-color:#837F7A"/>
		</linearGradient>
		<path style="fill-rule:evenodd;clip-rule:evenodd;fill:url(#SVGID_5_);" d="M24,64.55c-0.434,0.2-1.017,0.3-1.75,0.3
			c-0.767,0-1.3-0.116-1.6-0.35V41.3l0.2,0.3c0.266,0.167,0.733,0.25,1.4,0.25c1.1,0,1.684-0.183,1.75-0.55V64.55z"/>
	</g>
	<g>
		
			<linearGradient id="SVGID_6_" gradientUnits="userSpaceOnUse" x1="19.7681" y1="54.6309" x2="24.6431" y2="54.6309" gradientTransform="matrix(1 -0.0045 0.0045 1 4.705284e-004 -8.894550e-005)">
			<stop  offset="0.0353" style="stop-color:#AAA8A4"/>
			<stop  offset="0.1216" style="stop-color:#B5B2AE"/>
			<stop  offset="0.2471" style="stop-color:#CDC8C3"/>
			<stop  offset="0.302" style="stop-color:#BDB8B3"/>
			<stop  offset="0.4784" style="stop-color:#8F8C87"/>
			<stop  offset="0.6157" style="stop-color:#73706B"/>
			<stop  offset="0.6941" style="stop-color:#686661"/>
			<stop  offset="1" style="stop-color:#837F7A"/>
		</linearGradient>
		<path style="fill-rule:evenodd;clip-rule:evenodd;fill:url(#SVGID_6_);" d="M20,53.2l4.85-0.05v1.55
			c0.034,0.3-0.183,0.583-0.649,0.85c-0.467,0.233-1.017,0.351-1.65,0.351c-0.666,0-1.267-0.117-1.8-0.351
			C20.25,55.283,20,55,20,54.7V53.2z"/>
		
			<linearGradient id="SVGID_7_" gradientUnits="userSpaceOnUse" x1="19.7852" y1="53.4473" x2="24.6348" y2="53.4473" gradientTransform="matrix(1 -0.0045 0.0045 1 4.716869e-004 9.605708e-005)">
			<stop  offset="0.0353" style="stop-color:#A7A6A2"/>
			<stop  offset="0.1451" style="stop-color:#B2B1AB"/>
			<stop  offset="0.3373" style="stop-color:#CFCDC4"/>
			<stop  offset="0.4235" style="stop-color:#DFDBD0"/>
			<stop  offset="1" style="stop-color:#9A948E"/>
		</linearGradient>
		<path style="fill-rule:evenodd;clip-rule:evenodd;fill:url(#SVGID_7_);" d="M24.85,53.3c0,0.367-0.233,0.667-0.699,0.9
			c-0.467,0.233-1.034,0.35-1.7,0.35c-0.667,0-1.25-0.116-1.75-0.35c-0.467-0.233-0.7-0.517-0.7-0.851
			c0-0.366,0.233-0.666,0.7-0.899c0.5-0.233,1.083-0.334,1.75-0.3c0.633-0.034,1.2,0.066,1.7,0.3
			C24.616,52.684,24.85,52.967,24.85,53.3z"/>
		<path style="fill-rule:evenodd;clip-rule:evenodd;fill:#B8B5B0;" d="M24.85,53.15c0,0.3-0.233,0.566-0.699,0.8
			c-0.467,0.2-1.034,0.3-1.7,0.3c-0.667,0-1.25-0.1-1.75-0.3c-0.467-0.233-0.7-0.483-0.7-0.75c0-0.3,0.233-0.55,0.7-0.75
			c0.5-0.233,1.083-0.334,1.75-0.3c0.633-0.034,1.2,0.066,1.7,0.3C24.616,52.65,24.85,52.884,24.85,53.15z"/>
	</g>
	<g>
		<linearGradient id="SVGID_8_" gradientUnits="userSpaceOnUse" x1="20.7876" y1="47.4492" x2="23.9126" y2="47.4492">
			<stop  offset="0.0353" style="stop-color:#AAA8A4"/>
			<stop  offset="0.1216" style="stop-color:#B5B2AE"/>
			<stop  offset="0.2471" style="stop-color:#CDC8C3"/>
			<stop  offset="0.302" style="stop-color:#BDB8B3"/>
			<stop  offset="0.4784" style="stop-color:#8F8C87"/>
			<stop  offset="0.6157" style="stop-color:#73706B"/>
			<stop  offset="0.6941" style="stop-color:#686661"/>
			<stop  offset="1" style="stop-color:#837F7A"/>
		</linearGradient>
		<path style="fill-rule:evenodd;clip-rule:evenodd;fill:url(#SVGID_8_);" d="M24,53.3c-0.434,0.2-1.017,0.3-1.75,0.3
			c-0.767,0-1.3-0.116-1.6-0.35V41.3l0.2,0.3c0.266,0.167,0.733,0.25,1.4,0.25c1.1,0,1.684-0.183,1.75-0.55V53.3z"/>
	</g>
	<linearGradient id="SVGID_9_" gradientUnits="userSpaceOnUse" x1="5.2998" y1="5.4189" x2="37.5" y2="5.4189">
		<stop  offset="0" style="stop-color:#87816F"/>
		<stop  offset="1" style="stop-color:#AFA791"/>
	</linearGradient>
	<path style="fill-rule:evenodd;clip-rule:evenodd;fill:url(#SVGID_9_);" d="M5.3,3.35c0.767-0.2,1.983-0.4,3.65-0.6
		c3.367-0.4,7.333-0.6,11.9-0.6c4.466,0,8.583,0.2,12.35,0.6c1.866,0.2,3.3,0.4,4.3,0.6c-1.4,1.066-3.184,2.083-5.35,3.05
		c-4.367,1.9-8.5,2.617-12.4,2.15c-3.9-0.466-7.483-1.466-10.75-3L5.3,3.35z"/>
	<polygon style="fill-rule:evenodd;clip-rule:evenodd;fill:#898989;" points="18.1,6.65 16.8,6 19.55,3.95 23.2,4.2 23.15,4.45 
		20.2,4.5 	"/>
	<polygon style="fill-rule:evenodd;clip-rule:evenodd;fill:#F0E5E1;" points="24.9,6.05 23.15,4.45 22.9,4 23.65,4 25.95,5.55 	"/>
	<path style="fill-rule:evenodd;clip-rule:evenodd;fill:#AEAAA5;" d="M23.2,4.2h-3.15l-1.75,1c-1.267,0.8-2.25,1.483-2.95,2.05
		l-1.6,1.3l-4.8-1.8c3.6-0.833,6.117-1.55,7.55-2.15s2.583-1.017,3.45-1.25H23.6l3.4,1.6c2.434,1.1,4.083,1.767,4.95,2
		c0.866,0.267,0.866,0.617,0,1.05c-0.4,0.2-0.9,0.383-1.5,0.55l-2.65-1.1L23.2,4.2z"/>
	<path style="fill-rule:evenodd;clip-rule:evenodd;fill:#6B6B6B;" d="M23.7,3.45C23.7,3.817,23.066,4,21.8,4
		c-1.3,0-1.95-0.183-1.95-0.55c0-0.4,0.65-0.6,1.95-0.6C23.066,2.85,23.7,3.05,23.7,3.45z"/>
	<linearGradient id="SVGID_10_" gradientUnits="userSpaceOnUse" x1="4.5874" y1="23.7754" x2="38.0124" y2="23.7754">
		<stop  offset="0" style="stop-color:#FBF1D0"/>
		<stop  offset="0.1569" style="stop-color:#EBE1C3"/>
		<stop  offset="0.4941" style="stop-color:#CEC4AA"/>
		<stop  offset="0.7882" style="stop-color:#BCB39B"/>
		<stop  offset="1" style="stop-color:#B6AC96"/>
	</linearGradient>
	<path style="fill-rule:evenodd;clip-rule:evenodd;fill:url(#SVGID_10_);" d="M5.3,3.35C6.1,3.683,7.35,4.033,9.05,4.4
		c3.467,0.733,7.567,1.133,12.3,1.2c5.4,0.1,9.717-0.25,12.95-1.05c1.601-0.4,2.667-0.8,3.2-1.2l0.25,6.05
		c0.233,4.733,0.55,8.883,0.95,12.45c0.399,3.4,0.75,5.8,1.05,7.2c0.4,1.867,1.467,5.8,3.2,11.8c-1.033,0.534-2.717,1.084-5.05,1.65
		c-4.634,1.1-10.167,1.667-16.601,1.7c-6.433,0.033-11.917-0.55-16.45-1.75C2.583,41.85,0.967,41.233,0,40.6
		c0.5-1.166,1.033-2.8,1.6-4.899c1.167-4.2,2.017-8.567,2.55-13.1c0.3-2.633,0.583-6.633,0.85-12L5.3,3.35z"/>
	<linearGradient id="SVGID_11_" gradientUnits="userSpaceOnUse" x1="19.8501" y1="2.0771" x2="23.6501" y2="2.0771">
		<stop  offset="0.0353" style="stop-color:#AAA8A4"/>
		<stop  offset="0.1216" style="stop-color:#B5B2AE"/>
		<stop  offset="0.2471" style="stop-color:#CDC8C3"/>
		<stop  offset="0.302" style="stop-color:#BDB8B3"/>
		<stop  offset="0.4784" style="stop-color:#8F8C87"/>
		<stop  offset="0.6157" style="stop-color:#73706B"/>
		<stop  offset="0.6941" style="stop-color:#686661"/>
		<stop  offset="1" style="stop-color:#837F7A"/>
	</linearGradient>
	<path style="fill-rule:evenodd;clip-rule:evenodd;fill:url(#SVGID_11_);" d="M22.9,0.3L23,0.95l0.65,2.15
		c0.066,0.433-0.584,0.683-1.95,0.75c-0.566,0.033-1.05-0.117-1.45-0.45l-0.4-0.45L20.6,0.3L21,0.5c0.333,0.1,0.616,0.15,0.85,0.15
		C22.217,0.65,22.566,0.533,22.9,0.3z"/>
	<path style="fill-rule:evenodd;clip-rule:evenodd;fill:#F0E5E1;" d="M21.6,0c0.4-0.033,0.75,0,1.051,0.1
		c0.3,0.066,0.383,0.133,0.25,0.2c-0.4,0.233-0.884,0.317-1.45,0.25c-0.5-0.033-0.784-0.117-0.85-0.25
		c-0.033-0.066,0.117-0.133,0.45-0.2C21.25,0.067,21.434,0.033,21.6,0z"/>
	<path style="fill-rule:evenodd;clip-rule:evenodd;fill:#F0E5E1;" d="M20.85,1c0.133-0.1,0.216-0.083,0.25,0.05
		c0,0.034,0,0.284,0,0.75c0,0.333-0.05,0.633-0.149,0.9c-0.133,0.233-0.25,0.316-0.35,0.25c-0.1-0.067-0.133-0.367-0.1-0.9
		C20.533,1.517,20.65,1.167,20.85,1z"/>
	<path style="fill-rule:evenodd;clip-rule:evenodd;fill:#F4EED5;" d="M9.05,4.4C7.35,4.033,6.1,3.683,5.3,3.35
		c0.733-0.2,1.9-0.4,3.5-0.6c3.2-0.367,6.983-0.567,11.35-0.6l-0.2,0.5c-5.6,0.033-9.6,0.283-12,0.75l3.2,0.65
		c2.934,0.467,6.4,0.717,10.4,0.75c4.434,0.067,8.017-0.133,10.75-0.6c1.367-0.233,2.334-0.483,2.9-0.75V3.4
		C32.4,3,28.45,2.75,23.35,2.65l-0.1-0.45c6.134,0.1,10.884,0.483,14.25,1.15V3.4c-0.566,0.434-1.717,0.85-3.45,1.25
		c-3.2,0.733-7.434,1.05-12.7,0.95C16.617,5.533,12.517,5.133,9.05,4.4z"/>
</g>
</svg>
